<svg xmlns="http://www.w3.org/2000/svg" width="119" height="83" viewBox="0 0 119 83" fill="none"><rect y="3" width="22" height="66" rx="5.12316" fill="#24956A"></rect><rect x="27" y="8" width="23" height="60" rx="5.12316" fill="#F53758"></rect><rect x="69" width="23" height="69" rx="5.12316" fill="#24956A"></rect><rect x="97" y="27" width="22" height="42" rx="5.12316" fill="#F53758"></rect><path d="M20.4856 81H21.3712L21.9567 79.6387H24.2841L24.8769 81H25.7698L23.501 75.8037H22.7545L20.4856 81ZM22.2861 78.8775L23.1204 76.9527L23.9548 78.8775H22.2861ZM26.2 79.5289C26.2 80.4657 26.7196 81.0732 27.5613 81.0732C28.0297 81.0732 28.4176 80.8683 28.6298 80.5023V81H29.4349V77.3406H28.6298V79.141C28.6298 79.9241 28.2566 80.3413 27.7369 80.3413C27.2685 80.3413 27.005 79.9827 27.005 79.3972V77.3406H26.2V79.5289ZM33.9945 80.7512V77.3406H33.1895V77.831C32.9772 77.5089 32.5308 77.2674 32.0258 77.2674C31.0378 77.2674 30.262 78.0871 30.262 79.1191C30.262 80.1583 31.0378 80.978 32.0258 80.978C32.5308 80.978 32.9772 80.7292 33.1895 80.4072V80.7438C33.1895 81.483 32.6991 81.8856 32.0917 81.8856C31.6013 81.8856 31.1768 81.688 30.8694 81.3513L30.3864 81.9295C30.745 82.332 31.3817 82.6028 32.099 82.6028C33.1748 82.6028 33.9945 82.0246 33.9945 80.7512ZM31.0817 79.1191C31.0817 78.4677 31.5428 77.9993 32.1648 77.9993C32.7943 77.9993 33.2553 78.4677 33.2553 79.1191C33.2553 79.7704 32.7943 80.2388 32.1648 80.2388C31.5428 80.2388 31.0817 79.7704 31.0817 79.1191Z" fill="#333333"></path><path d="M86.3329 80.151C86.6476 80.7072 87.3429 81.0878 88.1846 81.0878C89.2019 81.0878 89.9191 80.495 89.9191 79.5875C89.9264 78.8117 89.4653 78.3506 88.6969 78.0652L88.1699 77.8676C87.6356 77.6699 87.3795 77.5016 87.3795 77.121C87.3795 76.7478 87.7601 76.5209 88.1992 76.5209C88.6017 76.5209 88.9238 76.6965 89.1872 77.0039L89.7801 76.4258C89.3995 75.972 88.8506 75.7158 88.2065 75.7158C87.2404 75.7158 86.5159 76.2721 86.5159 77.1796C86.5159 77.8895 86.9184 78.3433 87.7454 78.6433L88.3163 78.8483C88.814 79.0312 89.0555 79.2728 89.0555 79.6387C89.0555 80.0266 88.6969 80.2828 88.2138 80.2828C87.7088 80.2828 87.277 80.0339 87.0062 79.6167L86.3329 80.151ZM90.4938 79.1703C90.4938 80.2828 91.2916 81.0732 92.404 81.0732C93.1725 81.0732 93.7434 80.7438 94.0727 80.2242L93.4579 79.7851C93.2676 80.1071 92.9237 80.3413 92.4113 80.3413C91.8039 80.3413 91.3208 79.9461 91.2842 79.346H94.1605C94.1678 79.2289 94.1678 79.163 94.1678 79.0825C94.1678 77.9041 93.3628 77.2674 92.404 77.2674C91.2916 77.2674 90.4938 78.0944 90.4938 79.1703ZM92.3747 77.9481C92.8431 77.9481 93.2676 78.2335 93.3555 78.7604H91.3208C91.4306 78.2189 91.9063 77.9481 92.3747 77.9481ZM94.9954 82.5296H95.8005V80.5096C96.0054 80.8024 96.4519 81.0732 96.9788 81.0732C97.9815 81.0732 98.7427 80.2169 98.7427 79.1703C98.7427 78.1237 97.9815 77.2674 96.9788 77.2674C96.4519 77.2674 96.0054 77.5382 95.8005 77.831V77.3406H94.9954V82.5296ZM97.923 79.1703C97.923 79.829 97.4765 80.3413 96.8325 80.3413C96.1811 80.3413 95.7346 79.829 95.7346 79.1703C95.7346 78.5116 96.1811 77.9993 96.8325 77.9993C97.4765 77.9993 97.923 78.5116 97.923 79.1703ZM101.679 80.9561V80.2388C101.562 80.2828 101.401 80.312 101.248 80.312C100.83 80.312 100.633 80.1437 100.633 79.6899V78.0578H101.679V77.3406H100.633V76.3233H99.8277V77.3406H99.0666V78.0578H99.8277V79.8217C99.8277 80.6487 100.377 81.0366 101.079 81.0366C101.328 81.0366 101.518 81.0073 101.679 80.9561Z" fill="#333333"></path></svg>