<svg width="147" height="116" viewBox="0 0 147 116" fill="none" xmlns="http://www.w3.org/2000/svg">
<path d="M84.7687 1.84404C86.7508 0.702563 89.1907 0.702562 91.1727 1.84404L135.112 27.149C137.101 28.2942 138.326 30.4142 138.326 32.709V83.291C138.326 85.5858 137.101 87.7058 135.112 88.851L91.1727 114.156C89.1907 115.297 86.7508 115.297 84.7687 114.156L40.8291 88.851C38.8405 87.7058 37.615 85.5858 37.615 83.291V32.709C37.615 30.4142 38.8405 28.2942 40.8291 27.149L84.7687 1.84404Z" fill="#B6E1FD"/>
<path d="M137.386 28.4583L90.7853 1.62093C89.5336 0.900067 87.9707 1.80353 87.9707 3.24798V112.752C87.9707 114.196 89.5336 115.1 90.7853 114.379L137.386 87.5417C137.968 87.2065 138.326 86.5861 138.326 85.9146V30.0854C138.326 29.4139 137.968 28.7935 137.386 28.4583Z" fill="#91D2FC"/>
<path d="M138.311 57.2058H109.072V79.8945C111.66 79.9884 137.96 80.2403 138.312 79.8945L138.311 57.2058Z" fill="#3159B0"/>
<path d="M138.328 56.355H109L108.784 75.6323H138.328C138.328 75.6323 138.328 56.8487 138.328 56.355Z" fill="#3C6CD3"/>
<path d="M109.57 56.6974H107.803C106.585 56.6974 105.387 56.4009 104.317 55.8349L91.2834 48.9426C90.1402 48.338 88.8603 48.0214 87.5599 48.0214H75.1913C74.3649 48.0214 73.6949 48.675 73.6949 49.4813L74.5386 55.3309L66.7192 61.4729C67.3279 63.3792 68.2192 65.9214 69.3929 69.0995L69.6163 69.7028C70.3426 71.6598 71.2911 74.1701 72.4616 77.2335C73.0614 78.8031 74.2368 81.125 75.6988 84.918H86.4847C88.1339 84.918 92.741 84.3498 94.3044 83.8299C94.4207 83.7912 94.536 83.7528 94.6502 83.7148C95.1379 83.5799 95.6195 83.4183 96.0924 83.2329C104.699 80.328 106.53 79.3868 106.85 79.3131C107.216 79.2287 108.123 78.9925 109.57 79.3949V56.6974Z" fill="#FFB782"/>
<path fill-rule="evenodd" clip-rule="evenodd" d="M87.0577 52.5713L77.2455 53.9856L66.7192 61.4729L73.695 79.8307L88.457 79.6114L87.0577 52.5713Z" fill="#FFB782"/>
<path fill-rule="evenodd" clip-rule="evenodd" d="M14.6033 45.4269L58.789 36.3696C59.2942 36.2661 59.8195 36.382 60.2341 36.6885L77.1616 49.1996C77.9216 49.7613 78.1242 50.8119 77.6276 51.616L66.4332 69.7416C66.17 70.1677 65.7426 70.4663 65.2519 70.5669L20.9796 79.6413C19.9964 79.8428 19.036 79.2092 18.8345 78.2259C18.832 78.2141 18.8297 78.2022 18.8275 78.1903L13.181 47.5363C13.0017 46.5632 13.6339 45.6256 14.6033 45.4269ZM61.1331 55.9952C62.858 57.1586 65.2107 56.6868 66.388 54.9414C67.5653 53.1959 67.1214 50.8378 65.3966 49.6743C63.6717 48.5109 61.319 48.9827 60.1417 50.7281C58.9643 52.4736 59.4082 54.8317 61.1331 55.9952Z" fill="#3C6CD3"/>
<path fill-rule="evenodd" clip-rule="evenodd" d="M67.0381 52.528C74.2747 52.5507 79.2081 52.5023 81.8385 52.3829C89.8996 52.017 93.3215 51.2376 93.7493 48.504C93.7785 47.3495 93.0952 46.5826 91.6995 46.2032C90.0626 45.7582 87.2146 46.0808 84.9208 46.2735C82.1423 46.507 79.2914 47.1247 75.2984 47.8484L73.4747 46.567C87.2986 43.2413 94.6495 43.543 95.5271 47.4721C95.6606 51.4813 92.2387 53.6551 85.2614 53.9934C72.9824 54.4032 65.792 54.4038 63.6902 53.995C62.5787 52.8572 63.3882 51.657 66.1188 50.3945C66.6459 50.7501 66.9182 51.3412 66.9358 52.1679C66.707 52.0524 66.5296 52.088 66.4037 52.2747C66.2777 52.4613 66.4892 52.5458 67.0381 52.528Z" fill="#333333"/>
<path d="M23.7901 66.4611L21.9492 56.9563L27.8741 55.8088L28.2682 57.8436L24.4991 58.5736L24.8309 60.2872L27.7731 59.7173L28.1672 61.7522L25.2251 62.322L25.9459 66.0436L23.7901 66.4611ZM31.1793 65.03L29.3384 55.5252L33.1347 54.7899C34.9514 54.438 36.3663 55.4974 36.6723 57.077C36.9108 58.3086 36.3995 59.2272 35.2622 59.8919L39.4768 63.4229L36.8872 63.9245L32.9278 60.6218L32.5753 60.6901L33.335 64.6125L31.1793 65.03ZM32.2253 58.8828L33.6082 58.615C34.2455 58.4915 34.6364 58.0408 34.5301 57.4919C34.4186 56.9163 33.8928 56.6709 33.2556 56.7943L31.8727 57.0622L32.2253 58.8828ZM40.1547 63.2916L38.3138 53.7868L44.415 52.6051L44.8091 54.64L40.8637 55.4041L41.193 57.1043L44.3249 56.4977L44.719 58.5325L41.5871 59.1391L41.9164 60.8393L45.8618 60.0751L46.2559 62.11L40.1547 63.2916ZM47.8964 61.7922L46.0555 52.2874L52.1567 51.1057L52.5508 53.1405L48.6054 53.9047L48.9347 55.6049L52.0666 54.9983L52.4607 57.0331L49.3288 57.6397L49.6581 59.3399L53.6035 58.5757L53.9976 60.6105L47.8964 61.7922Z" fill="white"/>
<path d="M64.0733 69.8903H76.711C78.898 69.8903 80.6709 71.6587 80.6709 73.8402C80.6709 76.0217 78.898 77.7902 76.711 77.7902H64.0733C61.8863 77.7902 60.1134 76.0217 60.1134 73.8402C60.1134 71.6587 61.8863 69.8903 64.0733 69.8903Z" fill="#F1A770"/>
<path d="M76.711 69.8903H64.0733C61.8863 69.8903 60.1134 71.6587 60.1134 73.8402H80.6709C80.6709 71.6587 78.898 69.8903 76.711 69.8903Z" fill="#FFB782"/>
<path d="M76.711 61.938H61.3772C59.1902 61.938 57.4173 63.7064 57.4173 65.888C57.4173 68.0695 59.1902 69.8379 61.3772 69.8379H76.711C78.898 69.8379 80.6709 68.0695 80.6709 65.888C80.6709 63.7064 78.898 61.938 76.711 61.938Z" fill="#F1A770"/>
<path d="M76.711 61.938H61.3772C59.1902 61.938 57.4173 63.7064 57.4173 65.888H80.6709C80.6709 63.7064 78.898 61.938 76.711 61.938Z" fill="#FFB782"/>
<path d="M68.0122 84.9182H79.1175C81.0762 84.9182 82.6641 83.3343 82.6641 81.3805C82.6641 79.4267 81.0762 77.8428 79.1175 77.8428H68.0122C66.0535 77.8428 64.4656 79.4267 64.4656 81.3805C64.4656 83.3343 66.0535 84.9182 68.0122 84.9182Z" fill="#F1A770"/>
<path d="M64.4656 81.3804C64.4656 79.4266 66.0535 77.8427 68.0122 77.8427H79.1175C81.0762 77.8427 82.6641 79.4266 82.6641 81.3804V81.3804H64.4656Z" fill="#FFB782"/>
<path d="M58.6812 53.9856H76.711C78.898 53.9856 80.6709 55.7541 80.6709 57.9356C80.6709 60.1171 78.898 61.8855 76.711 61.8855H58.6812C56.4942 61.8855 54.7213 60.1171 54.7213 57.9356C54.7213 55.7541 56.4942 53.9856 58.6812 53.9856Z" fill="#F1A770"/>
<path d="M76.711 53.9856H58.6812C56.4942 53.9856 54.7213 55.7541 54.7213 57.9356H80.6709C80.6709 55.7541 78.898 53.9856 76.711 53.9856Z" fill="#FFB782"/>
</svg>
