<svg width="170" height="48" viewBox="0 0 170 48" fill="none" class="logo-f" xmlns="http://www.w3.org/2000/svg">
<mask id="mask0_2_147" style="mask-type:alpha" maskUnits="userSpaceOnUse" x="0" y="0" width="170" height="48">
<path fill-rule="evenodd" clip-rule="evenodd" d="M0 0H169.475V47.6926H0V0Z" fill="white"/>
</mask>
<g mask="url(#mask0_2_147)">
<path fill-rule="evenodd" clip-rule="evenodd" d="M64.5283 30.0194C67.9193 30.0194 70.5144 27.1947 70.5144 23.7636C70.5144 20.3332 67.9193 17.5072 64.5283 17.5072C61.186 17.5072 58.5927 20.3332 58.5927 23.7636C58.5927 27.1947 61.186 30.0194 64.5283 30.0194ZM65.8252 10.7471C72.1104 10.7471 77.7475 15.741 77.7475 23.7138C77.7475 31.635 72.0606 36.7303 65.6757 36.7303C62.6829 36.7303 59.9894 35.5194 58.5927 33.5514V34.9647C58.5927 35.5698 58.1434 36.0231 57.5451 36.0231H52.5568C51.9087 36.0231 51.4593 35.5698 51.4593 34.9647V1.76689C51.4593 1.1599 51.9087 0.706635 52.5568 0.706635H57.595C58.1434 0.706635 58.6426 1.1599 58.6426 1.76689V13.9255C59.8897 12.1088 62.5832 10.7471 65.8252 10.7471Z" fill="#248C63"/>
<path fill-rule="evenodd" clip-rule="evenodd" d="M93.9569 11.1002C94.4561 11.1002 95.1541 11.3523 95.1541 12.4624V17.4574C95.1541 18.5669 94.2567 18.8196 93.8572 18.8196H92.5609C89.4679 18.8196 87.8219 20.3836 87.8219 24.1173V35.0151C87.8219 35.6196 87.2729 36.0243 86.7244 36.0243H81.6863C81.0874 36.0243 80.6387 35.5698 80.6387 34.9647V12.5632C80.6387 11.9581 81.0874 11.4532 81.6863 11.4532H86.4751C86.9737 11.4532 87.5222 11.9076 87.5222 12.4624V14.4796C88.8689 12.3111 90.915 11.1002 93.2589 11.1002H93.9569Z" fill="#248C63"/>
<path fill-rule="evenodd" clip-rule="evenodd" d="M99.2444 36.0237C98.6455 36.0237 98.1469 35.5188 98.1469 34.9136V12.5632C98.1469 11.9581 98.6455 11.4538 99.2444 11.4538H104.282C104.881 11.4538 105.33 11.9581 105.33 12.5632V34.9136C105.33 35.5188 104.881 36.0237 104.282 36.0237H99.2444ZM97.4482 4.4403C97.4482 2.01904 99.3939 0 101.788 0C104.133 0 106.078 2.01904 106.078 4.4403C106.078 6.81114 104.133 8.82957 101.788 8.82957C99.3939 8.82957 97.4482 6.81114 97.4482 4.4403Z" fill="#248C63"/>
<path fill-rule="evenodd" clip-rule="evenodd" d="M121.94 29.616C125.332 29.616 127.875 26.9924 127.875 23.5121C127.875 20.081 125.332 17.407 121.94 17.407C118.598 17.407 116.053 20.081 116.053 23.5121C116.053 26.9924 118.598 29.616 121.94 29.616ZM127.925 35.9228V33.0471C126.828 34.7629 124.234 36.175 121.042 36.175C114.407 36.175 108.771 31.3318 108.771 23.5121C108.771 15.6911 114.457 10.7471 120.742 10.7471C124.034 10.7471 126.728 12.2096 127.925 14.1266V12.5632C127.925 11.9581 128.424 11.5036 128.973 11.5036H134.011C134.61 11.5036 135.058 11.9581 135.058 12.5632V36.175C135.058 43.0366 130.07 47.729 121.89 47.729C115.505 47.729 110.667 44.7524 109.519 40.2112C109.419 39.8078 109.469 39.3035 110.017 39.1522L115.256 37.6387C115.804 37.5378 116.253 37.6891 116.502 38.143C117.051 39.7069 118.797 41.4726 122.089 41.4726C125.93 41.4726 127.925 39.2026 127.925 35.9228Z" fill="#248C63"/>
<path fill-rule="evenodd" clip-rule="evenodd" d="M140.594 36.0237C139.996 36.0237 139.496 35.5188 139.496 34.9136V12.5632C139.496 11.9581 139.996 11.4538 140.594 11.4538H145.632C146.23 11.4538 146.68 11.9581 146.68 12.5632V34.9136C146.68 35.5188 146.23 36.0237 145.632 36.0237H140.594ZM138.798 4.4403C138.798 2.01904 140.744 0 143.138 0C145.483 0 147.428 2.01904 147.428 4.4403C147.428 6.81114 145.483 8.82957 143.138 8.82957C140.744 8.82957 138.798 6.81114 138.798 4.4403Z" fill="#248C63"/>
<path fill-rule="evenodd" clip-rule="evenodd" d="M153.563 17.5583H150.37C149.772 17.5583 149.323 17.0029 149.323 16.4482V12.5632C149.323 11.9581 149.772 11.4532 150.37 11.4532H153.563V4.94461C153.563 4.28901 154.061 3.83514 154.66 3.83514H159.748C160.297 3.83514 160.796 4.28901 160.796 4.94461V11.4532H167.629C168.228 11.4532 168.777 11.9581 168.777 12.5632V16.4482C168.777 17.0029 168.228 17.5583 167.629 17.5583H160.796V26.993C160.796 29.4143 162.342 29.8177 163.239 29.8177C163.788 29.8177 164.586 29.616 165.434 29.1117C166.233 28.6074 167.03 28.6074 167.48 29.3134L169.225 32.1393C169.624 32.7949 169.525 33.4505 169.076 33.9554C167.43 35.6707 164.736 36.5784 161.893 36.5784C157.703 36.5784 153.563 34.3085 153.563 28.7083V17.5583Z" fill="#248C63"/>
<path fill-rule="evenodd" clip-rule="evenodd" d="M13.2147 17.1202C16.0074 17.1202 18.6794 17.7892 21.0654 19.1186C21.2282 19.2091 21.3886 19.3015 21.5471 19.3987C21.7057 19.3015 21.8661 19.2091 22.0289 19.1186C25.2301 17.3353 28.9472 16.7405 32.7804 17.3553C29.4699 14.4972 25.6055 12.912 21.5471 12.912C17.4894 12.912 13.625 14.4972 10.3139 17.3553C11.2901 17.1986 12.2602 17.1202 13.2147 17.1202ZM7.36386 20.4243C5.38453 22.8796 3.71156 25.8726 2.45548 29.3092C2.00615 30.5383 2.17555 31.8635 2.91863 32.9438C3.66711 34.0308 4.84689 34.6542 6.15523 34.6542H9.22605C11.534 34.6542 13.4935 33.0058 13.9927 30.6453C14.8457 26.606 16.7835 23.2174 19.5528 20.8442C15.9786 19.0268 11.6793 18.8762 7.36386 20.4243ZM23.5415 20.8442C26.3107 23.2174 28.248 26.606 29.1016 30.6453C29.6008 33.0058 31.5603 34.6542 33.8676 34.6542H36.9391C38.2474 34.6542 39.4266 34.0308 40.1757 32.9438C40.9187 31.8635 41.0875 30.5383 40.6382 29.3092C39.3833 25.8726 37.7092 22.8796 35.7304 20.4243C31.415 18.8768 27.1163 19.0268 23.5415 20.8442ZM36.939 36.8944H33.8676C30.5055 36.8944 27.6551 34.5175 26.9361 31.1125C26.1293 27.2986 24.2419 24.1622 21.5471 22.0976C18.8524 24.1622 16.9637 27.2986 16.1582 31.1125C15.4398 34.5175 12.5882 36.8944 9.22605 36.8944H6.15523C4.14227 36.8944 2.25304 35.8955 1.10149 34.2234C-0.0446602 32.558 -0.314978 30.4308 0.378237 28.5321C4.40417 17.5151 12.5155 10.6724 21.5471 10.6724C30.5788 10.6724 38.6901 17.5151 42.716 28.5321C43.4099 30.4308 43.1395 32.558 41.9928 34.2234C40.8406 35.8955 38.952 36.8944 36.939 36.8944Z" fill="#248C63"/>
</g>
</svg>
