<svg xmlns="http://www.w3.org/2000/svg" width="163" height="57" viewBox="0 0 163 57" fill="none"><path opacity="0.9197" d="M38.1535 29.9181C37.9564 29.8143 37.7949 29.9136 37.7949 30.1383V31.325C37.7949 31.5497 37.9342 31.8516 38.1046 31.9959L51.8704 43.6566C52.0408 43.8008 52.359 43.8874 52.5778 43.8498L104.113 34.8821C104.331 34.8441 104.51 34.6292 104.51 34.4046V33.3677C104.51 33.143 104.33 32.9788 104.109 33.0025L54.7044 38.3555C54.4836 38.3796 54.1416 38.3142 53.9445 38.2108L38.1535 29.9181Z" fill="#0E8E60"></path><path d="M38.1081 29.9875C37.9361 29.8458 37.9744 29.7003 38.1937 29.6644L89.2945 21.2764C89.5137 21.2405 89.8359 21.3246 90.0099 21.4644L104.193 32.7954C104.368 32.9343 104.331 33.0781 104.112 33.1148L52.8207 41.6985C52.6019 41.7352 52.2813 41.649 52.1093 41.5073L38.1081 29.9875Z" fill="#0EAF79"></path><path fill-rule="evenodd" clip-rule="evenodd" d="M89.2945 21.2764C89.5137 21.2405 89.8355 21.3246 90.0099 21.4639L104.193 32.7954C104.368 32.9347 104.331 33.0793 104.112 33.1169L52.7416 41.9003C52.5227 41.9375 52.2038 41.8509 52.033 41.7071L38.1057 29.9912C37.9349 29.8474 37.9744 29.7003 38.1937 29.6644L89.2945 21.2764ZM43.3877 31.1821C43.1688 31.2188 43.1341 31.3606 43.3109 31.4966L53.1813 39.0929C53.3577 39.2289 53.6815 39.309 53.9004 39.2706L98.2765 31.4962C98.4954 31.4578 98.5333 31.3108 98.3605 31.1694L89.3138 23.7693C89.141 23.6279 88.8204 23.5426 88.6016 23.5793L43.3877 31.1821Z" fill="#0EAF79"></path><path d="M46.9145 29.4311C46.9145 29.4311 49.0968 32.1809 45.291 34.0348L40.9824 30.747L46.9145 29.4311Z" fill="#0EAF79"></path><path d="M50.269 37.2933C50.269 37.2933 55.3681 36.109 58.4852 39.3413L53.6211 40.7192L50.269 37.2933Z" fill="#0EAF79"></path><path d="M91.6651 25.0607C91.6651 25.0607 86.7638 26.3782 84.3433 23.2096C84.3433 23.2096 87.9085 22.6156 88.0768 22.6156C88.2452 22.6156 91.6651 25.0607 91.6651 25.0607Z" fill="#0EAF79"></path><path d="M96.9456 29.0724C96.9456 29.0724 94.3429 29.999 94.1313 33.1083L99.6189 31.4946L96.9456 29.0724Z" fill="#0EAF79"></path><path d="M58.6988 32.8562C58.7666 33.5609 58.077 34.2064 57.1592 34.2971C56.2403 34.389 55.4408 33.8898 55.3722 33.1843C55.3052 32.4796 55.9948 31.8341 56.9125 31.7438C57.8311 31.6535 58.6305 32.1515 58.6988 32.8562Z" fill="#0EAF79"></path><ellipse cx="84.3404" cy="28.9926" rx="1.67168" ry="1.28218" transform="rotate(-5.58972 84.3404 28.9926)" fill="#0EAF79"></ellipse><path d="M75.1777 33.6382C73.9195 35.5721 70.2877 36.0526 68.2883 34.7204C66.2886 33.3881 65.6877 30.7409 66.9474 28.8073C68.2055 26.8745 71.8357 26.3937 73.8356 27.7255C75.8346 29.0585 76.4358 31.7042 75.1777 33.6382Z" fill="#0EAF79"></path><path fill-rule="evenodd" clip-rule="evenodd" d="M71.1502 30.4271C72.2286 29.9324 73.0673 29.7433 73.5978 30.4304C74.1784 31.1792 73.8417 32.2075 72.886 33.0969L73.362 33.7138L72.9675 34.0251L72.498 33.4196C71.7575 33.9948 71.0319 34.2641 70.7775 34.3278C70.589 34.2216 70.0766 33.8249 69.6082 33.4221L69.9163 33.0822C70.4472 33.3673 71.3929 33.6521 72.2541 33.1046L71.09 31.6021L70.7759 31.7487C69.7867 32.1867 68.9885 32.2827 68.4882 31.6397C68.0073 31.0171 68.2108 30.0529 69.194 29.1517L68.7813 28.6165L69.1766 28.3028L69.5747 28.8155C69.928 28.5352 70.3778 28.2668 70.9237 28.0372C71.2035 28.2439 71.4885 28.4617 71.9452 28.8935L71.6367 29.2542C71.1433 28.9323 70.5397 28.7052 69.8214 29.1354L70.9136 30.546L71.1502 30.4271ZM69.4269 29.4507C68.9271 29.9136 68.8798 30.3855 69.1132 30.6845C69.3999 31.055 69.8404 31.0501 70.4553 30.7805L69.4269 29.4507ZM72.8904 31.426C73.2243 31.859 73.0519 32.4175 72.6445 32.7799L71.5467 31.3639C72.3231 31.0522 72.6607 31.1327 72.8904 31.426Z" fill="#0EAF79"></path><path opacity="0.9197" d="M38.1535 26.5697C37.9564 26.466 37.7949 26.5652 37.7949 26.7899V27.9763C37.7949 28.201 37.9358 28.5013 38.107 28.6439L52.1902 40.3111C52.3618 40.4537 52.6816 40.5386 52.9004 40.5002L104.112 31.5342C104.331 31.4958 104.51 31.2805 104.51 31.0558V30.0194C104.51 29.7947 104.329 29.6305 104.109 29.6541L54.7044 35.0067C54.4836 35.0308 54.1416 34.9655 53.9445 34.8621L38.1535 26.5697Z" fill="#0E8E60"></path><path d="M38.1076 26.64C37.936 26.4978 37.9748 26.352 38.194 26.316L89.2948 17.9277C89.514 17.8917 89.8362 17.9759 90.0102 18.1156L104.194 29.4466C104.368 29.5855 104.331 29.7293 104.112 29.7665L52.7669 38.3791C52.5481 38.4159 52.2279 38.3293 52.0563 38.1871L38.1076 26.64Z" fill="#0EAF79"></path><path fill-rule="evenodd" clip-rule="evenodd" d="M89.2945 17.9277C89.5137 17.8917 89.8355 17.9759 90.0099 18.1152L104.193 29.4462C104.368 29.5855 104.331 29.7301 104.112 29.7677L52.7416 38.5511C52.5227 38.5883 52.2038 38.5017 52.033 38.3579L38.1057 26.6425C37.9349 26.4991 37.9744 26.352 38.1937 26.316L89.2945 17.9277ZM43.3877 27.8337C43.1688 27.8709 43.1341 28.0123 43.3109 28.1483L53.1813 35.7449C53.3577 35.881 53.6815 35.961 53.9004 35.9226L98.2765 28.1471C98.4954 28.1091 98.5333 27.962 98.3605 27.8207L89.3138 20.4209C89.141 20.2796 88.8204 20.1942 88.6016 20.231L43.3877 27.8337Z" fill="#0EAF79"></path><path d="M46.9145 26.0823C46.9145 26.0823 49.0968 28.8317 45.291 30.6861L40.9824 27.3978L46.9145 26.0823Z" fill="#0EAF79"></path><path d="M50.269 33.9446C50.269 33.9446 55.3681 32.7606 58.4852 35.9929L53.6211 37.3713L50.269 33.9446Z" fill="#0EAF79"></path><path d="M91.6651 21.7119C91.6651 21.7119 86.7638 23.0294 84.3433 19.8617C84.3433 19.8617 87.9085 19.2668 88.0768 19.2668C88.2452 19.2668 91.6651 21.7119 91.6651 21.7119Z" fill="#0EAF79"></path><path d="M96.9456 25.7237C96.9456 25.7237 94.3429 26.6511 94.1313 29.7604L99.6189 28.1463L96.9456 25.7237Z" fill="#0EAF79"></path><path d="M58.6988 29.5071C58.7666 30.2118 58.077 30.8573 57.1592 30.948C56.2403 31.0399 55.4408 30.5407 55.3722 29.8355C55.3052 29.1308 55.9948 28.4853 56.9125 28.3946C57.8311 28.3048 58.6305 28.8028 58.6988 29.5071Z" fill="#0EAF79"></path><path d="M86.0078 25.4802C86.076 26.1857 85.386 26.832 84.4674 26.921C83.5485 27.013 82.7482 26.5141 82.6804 25.8094C82.6126 25.1039 83.3022 24.4592 84.2219 24.3685C85.1397 24.2783 85.9395 24.7763 86.0078 25.4802Z" fill="#0EAF79"></path><path d="M75.1777 30.2902C73.9195 32.2234 70.2877 32.7034 68.2883 31.3712C66.2886 30.0394 65.6877 27.3917 66.9474 25.4585C68.2055 23.5254 71.8357 23.0445 73.8356 24.3763C75.8346 25.7094 76.4358 28.3554 75.1777 30.2902Z" fill="#0EAF79"></path><path fill-rule="evenodd" clip-rule="evenodd" d="M71.1502 27.0792C72.2286 26.5844 73.0673 26.3945 73.5978 27.0816C74.1784 27.8304 73.8417 28.8595 72.886 29.7481L73.362 30.3658L72.9675 30.6763L72.498 30.0712C71.7575 30.646 71.0319 30.9157 70.7775 30.9798C70.589 30.8732 70.0766 30.4761 69.6082 30.0737L69.9163 29.7338C70.4472 30.0185 71.3929 30.3041 72.2541 29.7567L71.09 28.2541L70.7759 28.3999C69.7867 28.8379 68.9885 28.9343 68.4882 28.2909C68.0073 27.6683 68.2108 26.7041 69.194 25.8029L68.7813 25.2677L69.1766 24.954L69.5747 25.4671C69.928 25.1864 70.3778 24.9188 70.9237 24.6888C71.2035 24.8952 71.4885 25.1129 71.9452 25.5447L71.6367 25.9054C71.1433 25.5835 70.5397 25.3564 69.8214 25.7866L70.9136 27.198L71.1502 27.0792ZM69.4269 26.102C68.9271 26.5648 68.8798 27.0367 69.1132 27.3357C69.3999 27.7067 69.8404 27.7013 70.4553 27.4321L69.4269 26.102ZM72.8904 28.0772C73.2243 28.5102 73.0519 29.0691 72.6445 29.4311L71.5467 28.0159C72.3231 27.7038 72.6607 27.7839 72.8904 28.0772Z" fill="#0EAF79"></path><path opacity="0.9197" d="M38.1535 23.2333C37.9564 23.1295 37.7949 23.2288 37.7949 23.4535V24.6391C37.7949 24.8638 37.9342 25.1657 38.1046 25.3099L51.8704 36.9706C52.0408 37.1148 52.359 37.2014 52.5778 37.1634L104.113 28.1957C104.331 28.1573 104.51 27.9424 104.51 27.7178V26.6821C104.51 26.4574 104.33 26.2932 104.109 26.3169L54.7044 31.6707C54.4836 31.6948 54.1416 31.6294 53.9445 31.5261L38.1535 23.2333Z" fill="#0E8E60"></path><path d="M38.1081 23.3027C37.9361 23.161 37.9744 23.0155 38.1937 22.9796L89.2945 14.592C89.5137 14.5561 89.8359 14.6406 90.0099 14.7795L104.193 26.1105C104.368 26.2494 104.331 26.3932 104.112 26.4296L52.7787 34.9802C52.5599 35.0165 52.2397 34.9303 52.0673 34.7886L38.1081 23.3027Z" fill="#0EAF79"></path><path fill-rule="evenodd" clip-rule="evenodd" d="M89.2945 14.592C89.5137 14.5561 89.8355 14.6402 90.0099 14.7796L104.193 26.1102C104.368 26.2495 104.331 26.3941 104.112 26.4313L52.7416 35.2143C52.5227 35.2514 52.2038 35.1648 52.033 35.021L38.1057 23.306C37.9349 23.1626 37.9744 23.0155 38.1937 22.9796L89.2945 14.592ZM43.3877 24.4973C43.1688 24.5345 43.1341 24.6758 43.3109 24.8119L53.1813 32.4077C53.3577 32.5437 53.6815 32.6238 53.9004 32.5854L98.2765 24.8114C98.4954 24.7734 98.5333 24.6264 98.3605 24.485L89.3138 17.0845C89.141 16.9431 88.8204 16.8578 88.6016 16.8945L43.3877 24.4973Z" fill="#0EAF79"></path><path d="M46.9145 22.7455C46.9145 22.7455 49.0968 25.4965 45.291 27.3496L40.9824 24.0622L46.9145 22.7455Z" fill="#0EAF79"></path><path d="M50.269 30.6085C50.269 30.6085 55.3681 29.4229 58.4852 32.6556L53.6211 34.0344L50.269 30.6085Z" fill="#0EAF79"></path><path d="M91.6651 18.3746C91.6651 18.3746 86.7638 19.6938 84.3433 16.5244C84.3433 16.5244 87.9085 15.9308 88.0768 15.9308C88.2452 15.9308 91.6651 18.3746 91.6651 18.3746Z" fill="#0EAF79"></path><path d="M96.9456 22.3872C96.9456 22.3872 94.3429 23.315 94.1313 26.4227L99.6189 24.809L96.9456 22.3872Z" fill="#0EAF79"></path><path d="M58.6988 26.1706C58.7666 26.8761 58.077 27.5208 57.1592 27.6115C56.2403 27.7026 55.4408 27.2042 55.3722 26.4995C55.3052 25.7935 55.9948 25.1489 56.9125 25.0582C57.8311 24.9675 58.6305 25.4667 58.6988 26.1706Z" fill="#0EAF79"></path><ellipse cx="84.347" cy="22.3066" rx="1.6718" ry="1.28227" transform="rotate(-5.57206 84.347 22.3066)" fill="#0EAF79"></ellipse><path d="M75.1777 26.9529C73.9195 28.8861 70.2877 29.3669 68.2883 28.0339C66.2886 26.7029 65.6877 24.0548 66.9474 22.1212C68.2055 20.1881 71.8357 19.708 73.8356 21.0394C75.8346 22.3721 76.4358 25.0181 75.1777 26.9529Z" fill="#0EAF79"></path><path fill-rule="evenodd" clip-rule="evenodd" d="M71.1502 23.7419C72.2286 23.2472 73.0673 23.058 73.5978 23.7448C74.1784 24.494 73.8417 25.5223 72.886 26.4116L73.362 27.0285L72.9675 27.3398L72.498 26.7348C71.7575 27.3088 71.0319 27.5784 70.7775 27.6434C70.589 27.5367 70.0766 27.1388 69.6082 26.7364L69.9163 26.3965C70.4472 26.6821 71.3929 26.9672 72.2541 26.4206L71.09 24.9181L70.7759 25.0635C69.7867 25.5027 68.9885 25.5962 68.4882 24.9544C68.0073 24.3322 68.2108 23.3677 69.194 22.4665L68.7813 21.9325L69.1766 21.6183L69.5747 22.1294C69.928 21.85 70.3778 21.5824 70.9237 21.3532C71.2035 21.5591 71.4885 21.7777 71.9452 22.2079L71.6367 22.5682C71.1433 22.2463 70.5397 22.0203 69.8214 22.4493L70.9136 23.8608L71.1502 23.7419ZM69.4269 22.7639C68.9271 23.2284 68.8798 23.6998 69.1132 23.998C69.3999 24.3698 69.8404 24.3641 70.4553 24.0945L69.4269 22.7639ZM72.8904 24.7407C73.2243 25.173 73.0519 25.7318 72.6445 26.0946L71.5467 24.6787C72.3231 24.3674 72.6607 24.4474 72.8904 24.7407Z" fill="#0EAF79"></path><path opacity="0.9197" d="M38.1535 19.9067C37.9564 19.8029 37.7949 19.9022 37.7949 20.1269V21.3124C37.7949 21.5371 37.9342 21.839 38.1046 21.9832L51.8704 33.6439C52.0408 33.7881 52.359 33.8747 52.5778 33.8367L104.113 24.8699C104.331 24.8315 104.51 24.6166 104.51 24.3919V23.3555C104.51 23.1308 104.33 22.9665 104.109 22.9902L54.7044 28.344C54.4836 28.3681 54.1416 28.3028 53.9445 28.1994L38.1535 19.9067Z" fill="#0E8E60"></path><path d="M38.1079 19.9769C37.9359 19.8343 37.9747 19.6889 38.1939 19.6529L89.2947 11.2654C89.5139 11.2294 89.8361 11.314 90.0102 11.4529L104.193 22.7839C104.368 22.9228 104.331 23.067 104.112 23.1038L52.8004 31.7156C52.5815 31.7524 52.2614 31.6666 52.0893 31.524L38.1079 19.9769Z" fill="#0EAF79"></path><path fill-rule="evenodd" clip-rule="evenodd" d="M89.2945 11.2654C89.5137 11.2294 89.8355 11.3136 90.0099 11.4529L104.193 22.7835C104.368 22.9228 104.331 23.0674 104.112 23.1046L52.7416 31.8872C52.5227 31.9244 52.2038 31.8378 52.033 31.694L38.1057 19.9793C37.9349 19.836 37.9744 19.6889 38.1937 19.6529L89.2945 11.2654ZM43.3877 21.1698C43.1688 21.207 43.1341 21.3483 43.3109 21.4844L53.1813 29.081C53.3577 29.217 53.6815 29.2971 53.9004 29.2587L98.2765 21.4844C98.4954 21.4464 98.5333 21.2993 98.3605 21.158L89.3138 13.7582C89.141 13.6169 88.8204 13.5315 88.6016 13.5683L43.3877 21.1698Z" fill="#0EAF79"></path><path d="M46.9145 19.42C46.9145 19.42 49.0968 22.1699 45.291 24.0234L40.9824 20.7359L46.9145 19.42Z" fill="#0EAF79"></path><path d="M50.269 27.2818C50.269 27.2818 55.3681 26.0962 58.4852 29.3285L53.6211 30.7082L50.269 27.2818Z" fill="#0EAF79"></path><path d="M91.6651 15.0484C91.6651 15.0484 86.7638 16.3675 84.3433 13.1981C84.3433 13.1981 87.9085 12.6041 88.0768 12.6041C88.2452 12.6041 91.6651 15.0484 91.6651 15.0484Z" fill="#0EAF79"></path><path d="M96.9456 19.0605C96.9456 19.0605 94.3429 19.9879 94.1313 23.0956L99.6189 21.4819L96.9456 19.0605Z" fill="#0EAF79"></path><path d="M58.6988 22.8444C58.7666 23.5499 58.077 24.1954 57.1592 24.2849C56.2403 24.376 55.4408 23.878 55.3722 23.1732C55.3052 22.4669 55.9948 21.8222 56.9125 21.7319C57.8311 21.6417 58.6305 22.1397 58.6988 22.8444Z" fill="#0EAF79"></path><ellipse cx="84.3473" cy="18.983" rx="1.67183" ry="1.28311" transform="rotate(-5.58346 84.3473 18.983)" fill="#0EAF79"></ellipse><path d="M75.1777 23.6267C73.9195 25.5599 70.2877 26.0407 68.2883 24.7077C66.2886 23.3767 65.6877 20.7286 66.9474 18.795C68.2055 16.8618 71.8357 16.3818 73.8356 17.7132C75.8346 19.0458 76.4358 21.6915 75.1777 23.6267Z" fill="#0EAF79"></path><path fill-rule="evenodd" clip-rule="evenodd" d="M71.1502 20.4144C72.2286 19.9205 73.0673 19.7309 73.5978 20.4177C74.1784 21.1673 73.8417 22.1956 72.886 23.0846L73.362 23.7019L72.9675 24.014L72.498 23.4081C71.7575 23.9821 71.0319 24.2513 70.7775 24.3167C70.589 24.2101 70.0766 23.8122 69.6082 23.4098L69.9163 23.0699C70.4472 23.3554 71.3929 23.6406 72.2541 23.0936L71.09 21.5914L70.7759 21.7368C69.7867 22.176 68.9885 22.2696 68.4882 21.6277C68.0073 21.0056 68.2108 20.041 69.194 19.1398L68.7813 18.6058L69.1766 18.2909L69.5747 18.8028C69.928 18.5233 70.3778 18.2557 70.9237 18.0266C71.2035 18.232 71.4885 18.451 71.9452 18.8808L71.6367 19.2415C71.1433 18.9196 70.5397 18.6925 69.8214 19.1226L70.9136 20.5341L71.1502 20.4144ZM69.4269 19.4384C68.9271 19.9021 68.8798 20.3736 69.1132 20.6722C69.3999 21.0431 69.8404 21.0382 70.4553 20.7686L69.4269 19.4384ZM72.8904 21.4141C73.2243 21.8463 73.0519 22.4048 72.6445 22.768L71.5467 21.352C72.3231 21.0415 72.6607 21.1208 72.8904 21.4141Z" fill="#0EAF79"></path><path opacity="0.9197" d="M38.1535 16.7336C37.9564 16.6299 37.7949 16.7291 37.7949 16.9538V18.1402C37.7949 18.3649 37.9342 18.6668 38.1046 18.811L51.8704 30.4717C52.0408 30.6159 52.359 30.7025 52.5778 30.6645L104.113 21.6969C104.331 21.6585 104.51 21.4436 104.51 21.2189V20.1833C104.51 19.9586 104.33 19.7943 104.109 19.818L54.7044 25.1714C54.4836 25.1955 54.1416 25.1302 53.9445 25.0268L38.1535 16.7336Z" fill="#0E8E60"></path><path d="M38.1079 16.8038C37.9359 16.6617 37.9747 16.5158 38.1939 16.4799L89.2947 8.09232C89.5139 8.05637 89.8361 8.14094 90.0102 8.27984L104.193 19.61C104.368 19.7498 104.332 19.8931 104.112 19.9303L52.7935 28.5622C52.5747 28.5993 52.2545 28.5127 52.0825 28.3706L38.1079 16.8038Z" fill="#0EAF79"></path><path fill-rule="evenodd" clip-rule="evenodd" d="M89.2945 8.09235C89.5137 8.0564 89.8355 8.14055 90.0099 8.27986L104.193 19.6105C104.368 19.7498 104.331 19.8944 104.112 19.9316L52.7416 28.7154C52.5227 28.7526 52.2038 28.666 52.033 28.5222L38.1057 16.8063C37.9349 16.6629 37.9744 16.5158 38.1937 16.4799L89.2945 8.09235ZM43.3877 17.9972C43.1688 18.0344 43.1341 18.1757 43.3109 18.3117L53.1813 25.9088C53.3577 26.0448 53.6815 26.1249 53.9004 26.0865L98.2765 18.3117C98.4954 18.2738 98.5333 18.1267 98.3605 17.9853L89.3138 10.5844C89.141 10.443 88.8204 10.3577 88.6016 10.3944L43.3877 17.9972Z" fill="#0EAF79"></path><path d="M46.9145 16.2466C46.9145 16.2466 49.0968 18.9965 45.291 20.8504L40.9824 17.5625L46.9145 16.2466Z" fill="#0EAF79"></path><path d="M50.269 24.108C50.269 24.108 55.3681 22.9237 58.4852 26.156L53.6211 27.5348L50.269 24.108Z" fill="#0EAF79"></path><path d="M91.6651 11.8758C91.6651 11.8758 86.7638 13.1941 84.3433 10.0255C84.3433 10.0255 87.9085 9.43073 88.0768 9.43073C88.2452 9.43073 91.6651 11.8758 91.6651 11.8758Z" fill="#0EAF79"></path><path d="M96.9456 15.8871C96.9456 15.8871 94.3429 16.8145 94.1313 19.923L99.6189 18.3085L96.9456 15.8871Z" fill="#0EAF79"></path><path d="M58.6988 19.6718C58.7666 20.3761 58.077 21.0215 57.1592 21.1114C56.2403 21.2033 55.4408 20.7053 55.3722 19.9998C55.3052 19.2951 55.9948 18.6496 56.9125 18.5581C57.8311 18.469 58.6305 18.9666 58.6988 19.6718Z" fill="#0EAF79"></path><path d="M86.0078 15.644C86.076 16.3496 85.386 16.995 84.4674 17.0857C83.5485 17.1764 82.7482 16.6776 82.6804 15.9729C82.6126 15.2682 83.3022 14.6227 84.2219 14.5312C85.1397 14.4421 85.9395 14.9393 86.0078 15.644Z" fill="#0EAF79"></path><path d="M75.1777 20.4541C73.9195 22.3869 70.2877 22.8677 68.2883 21.5359C66.2886 20.2029 65.6877 17.5556 66.9474 15.6216C68.2055 13.6884 71.8357 13.2092 73.8356 14.5394C75.8346 15.8732 76.4358 18.5193 75.1777 20.4541Z" fill="#0EAF79"></path><path fill-rule="evenodd" clip-rule="evenodd" d="M71.1502 17.243C72.2286 16.7483 73.0673 16.5579 73.5978 17.2446C74.1784 17.9943 73.8417 19.0222 72.886 19.9115L73.362 20.5292L72.9675 20.8409L72.498 20.2347C71.7575 20.8091 71.0319 21.0783 70.7775 21.1433C70.589 21.0379 70.0766 20.6399 69.6082 20.2375L69.9163 19.8976C70.4472 20.1832 71.3929 20.4675 72.2541 19.9205L71.09 18.4179L70.7759 18.5638C69.7867 19.0026 68.9885 19.0969 68.4882 18.4555C68.0073 17.8321 68.2108 16.8676 69.194 15.9676L68.7813 15.4324L69.1766 15.1187L69.5747 15.6305C69.928 15.3511 70.3778 15.0823 70.9237 14.8535C71.2035 15.0598 71.4885 15.2776 71.9452 15.7086L71.6367 16.0681C71.1433 15.7474 70.5397 15.5202 69.8214 15.9504L70.9136 17.3615L71.1502 17.243ZM69.4269 16.2654C68.9271 16.7295 68.8798 17.2001 69.1132 17.4988C69.3999 17.8705 69.8404 17.8652 70.4553 17.596L69.4269 16.2654ZM72.8904 18.2411C73.2243 18.6733 73.0519 19.2326 72.6445 19.5957L71.5467 18.1798C72.3231 17.8685 72.6607 17.9485 72.8904 18.2411Z" fill="#0EAF79"></path><path opacity="0.9197" d="M38.1535 13.2439C37.9564 13.1401 37.7949 13.2394 37.7949 13.4641V14.6496C37.7949 14.8743 37.9342 15.1762 38.1046 15.3204L51.8704 26.9811C52.0408 27.1253 52.359 27.212 52.5778 27.1744L104.113 18.2067C104.331 18.1687 104.51 17.9538 104.51 17.7291V16.6931C104.51 16.4684 104.33 16.3042 104.109 16.3279L54.7044 21.68C54.4836 21.7041 54.1416 21.6388 53.9445 21.5354L38.1535 13.2439Z" fill="#0E8E60"></path><path d="M38.1076 13.3145C37.936 13.172 37.9748 13.0261 38.194 12.9902L89.2948 4.60099C89.514 4.56504 89.8362 4.6496 90.0102 4.78891L104.194 16.1203C104.368 16.2596 104.332 16.4039 104.112 16.4406L52.7799 25.0684C52.561 25.1052 52.2408 25.019 52.0692 24.8764L38.1076 13.3145Z" fill="#0EAF79"></path><path fill-rule="evenodd" clip-rule="evenodd" d="M89.2945 4.60102C89.5137 4.56506 89.8355 4.64922 90.0099 4.78853L104.193 16.1208C104.368 16.2601 104.331 16.4047 104.112 16.4419L52.7416 25.2249C52.5227 25.2621 52.2038 25.1754 52.033 25.0316L38.1057 13.3166C37.9349 13.1732 37.9744 13.0261 38.1937 12.9902L89.2945 4.60102ZM43.3877 14.5079C43.1688 14.5451 43.1341 14.6864 43.3109 14.8225L53.1813 22.4183C53.3577 22.5543 53.6815 22.6344 53.9004 22.596L98.2769 14.8204C98.4958 14.7824 98.5337 14.6354 98.3609 14.494L89.3142 7.09387C89.1414 6.95252 88.8208 6.86714 88.602 6.9039L43.3877 14.5079Z" fill="#0EAF79"></path><path d="M46.9145 12.7553C46.9145 12.7553 49.0968 15.5059 45.291 17.359L40.9824 14.0712L46.9145 12.7553Z" fill="#0EAF79"></path><path d="M50.269 20.6175C50.269 20.6175 55.3681 19.4332 58.4852 22.6667L53.6211 24.0442L50.269 20.6175Z" fill="#0EAF79"></path><path d="M91.6651 8.38606C91.6651 8.38606 86.7638 9.70357 84.3433 6.53501C84.3433 6.53501 87.9085 5.94019 88.0768 5.94019C88.2452 5.94019 91.6651 8.38606 91.6651 8.38606Z" fill="#0EAF79"></path><path d="M96.9456 12.3974C96.9456 12.3974 94.3429 13.3248 94.1313 16.4333L99.6189 14.8188L96.9456 12.3974Z" fill="#0EAF79"></path><path d="M58.6988 16.1804C58.7666 16.8852 58.077 17.5306 57.1592 17.6221C56.2403 17.7132 55.4408 17.214 55.3722 16.5085C55.3052 15.8038 55.9948 15.1587 56.9125 15.0688C57.8311 14.9781 58.6305 15.4761 58.6988 16.1804Z" fill="#0EAF79"></path><path d="M86.0078 12.1544C86.076 12.8591 85.386 13.5054 84.4674 13.5944C83.5485 13.6864 82.7482 13.188 82.6804 12.4828C82.6126 11.7773 83.3022 11.1326 84.2219 11.0419C85.1397 10.9517 85.9395 11.4497 86.0078 12.1544Z" fill="#0EAF79"></path><path d="M75.1777 16.9636C73.9195 18.8972 70.2877 19.3768 68.2883 18.0446C66.2886 16.7123 65.6877 14.0659 66.9474 12.1319C68.2055 10.1987 71.8357 9.71788 73.8356 11.0497C75.8346 12.3827 76.4358 15.0296 75.1777 16.9636Z" fill="#0EAF79"></path><path fill-rule="evenodd" clip-rule="evenodd" d="M71.1502 13.7525C72.2286 13.2578 73.0673 13.0687 73.5978 13.755C74.1784 14.5038 73.8417 15.5329 72.886 16.4223L73.362 17.0392L72.9675 17.3496L72.498 16.7442C71.7575 17.3194 71.0319 17.5886 70.7775 17.6532C70.589 17.547 70.0766 17.1503 69.6082 16.7479L69.9163 16.4076C70.4472 16.6919 71.3929 16.9775 72.2541 16.43L71.09 14.9275L70.7759 15.0741C69.7867 15.5113 68.9885 15.6073 68.4882 14.9642C68.0073 14.3416 68.2108 13.3783 69.194 12.4771L68.7813 11.9419L69.1766 11.6282L69.5747 12.1409C69.928 11.8606 70.3778 11.593 70.9237 11.363C71.2035 11.5685 71.4885 11.7871 71.9452 12.2181L71.6367 12.5788C71.1433 12.2569 70.5397 12.0306 69.8214 12.4599L70.9136 13.8714L71.1502 13.7525ZM69.4269 12.7749C68.9271 13.2378 68.8798 13.7096 69.1132 14.0091C69.3999 14.38 69.8404 14.3751 70.4553 14.1055L69.4269 12.7749ZM72.8904 14.7514C73.2243 15.1844 73.0519 15.7421 72.6445 16.1053L71.5467 14.6893C72.3231 14.3768 72.6607 14.4572 72.8904 14.7514Z" fill="#0EAF79"></path><path opacity="0.9197" d="M38.1535 9.7432C37.9564 9.63943 37.7949 9.73871 37.7949 9.9634V11.149C37.7949 11.3736 37.9342 11.6756 38.1046 11.8198L51.8704 23.4805C52.0408 23.6247 52.359 23.7113 52.5778 23.6737L104.113 14.706C104.331 14.6676 104.51 14.4527 104.51 14.2281V13.192C104.51 12.9673 104.33 12.8031 104.109 12.8268L54.7044 18.179C54.4836 18.2031 54.1416 18.1377 53.9445 18.0343L38.1535 9.7432Z" fill="#0E8E60"></path><path d="M38.1116 9.80897C37.9376 9.66925 37.9748 9.52545 38.194 9.4895L89.2948 1.10032C89.514 1.06437 89.8362 1.14893 90.0102 1.28824L104.194 12.6201C104.368 12.7594 104.331 12.9015 104.112 12.9363L52.5792 21.0603C52.3595 21.095 52.0378 21.0088 51.8641 20.8691L38.1116 9.80897Z" fill="#86D7A8"></path><path fill-rule="evenodd" clip-rule="evenodd" d="M89.2945 1.10071C89.5137 1.06476 89.8355 1.14892 90.0099 1.28823L104.193 12.6205C104.368 12.7598 104.331 12.9044 104.112 12.9416L52.7416 21.7242C52.5227 21.7613 52.2038 21.6747 52.033 21.5309L38.1057 9.8159C37.9349 9.6725 37.9744 9.52543 38.1937 9.48948L89.2945 1.10071ZM43.3877 11.0068C43.1688 11.0439 43.1341 11.1853 43.3109 11.3213L53.1813 18.918C53.3577 19.054 53.6815 19.1341 53.9004 19.0957L98.2765 11.3201C98.4954 11.2821 98.5333 11.135 98.3605 10.9937L89.3138 3.59397C89.141 3.45262 88.8204 3.36724 88.6016 3.40401L43.3877 11.0068Z" fill="#0EAF79"></path><path d="M46.9145 9.25543C46.9145 9.25543 49.0968 12.0048 45.291 13.8592L40.9824 10.5709L46.9145 9.25543Z" fill="#0EAF79"></path><path d="M50.269 17.1176C50.269 17.1176 55.3681 15.9332 58.4852 19.1655L53.6211 20.5435L50.269 17.1176Z" fill="#0EAF79"></path><path d="M91.6651 4.88535C91.6651 4.88535 86.7638 6.20327 84.3433 3.03388C84.3433 3.03388 87.9085 2.43988 88.0768 2.43988C88.2452 2.43988 91.6651 4.88535 91.6651 4.88535Z" fill="#0EAF79"></path><path d="M96.9456 8.89716C96.9456 8.89716 94.3429 9.8237 94.1313 12.9326L99.6189 11.3189L96.9456 8.89716Z" fill="#0EAF79"></path><path d="M58.6988 12.6801C58.7666 13.3848 58.077 14.0303 57.1592 14.121C56.2403 14.2121 55.4408 13.7141 55.3722 13.0086C55.3052 12.3039 55.9948 11.6584 56.9125 11.5677C57.8311 11.4774 58.6305 11.9754 58.6988 12.6801Z" fill="#0EAF79"></path><path d="M86.0078 8.65284C86.076 9.35838 85.386 10.0039 84.4674 10.0937C83.5485 10.1848 82.7482 9.68684 82.6804 8.98212C82.6126 8.27577 83.3022 7.63111 84.2219 7.54123C85.1397 7.45054 85.9395 7.94895 86.0078 8.65284Z" fill="#0EAF79"></path><path d="M75.1777 13.4633C73.9195 15.3964 70.2877 15.8765 68.2883 14.5442C66.2886 13.2128 65.6877 10.5656 66.9474 8.63198C68.2055 6.69922 71.8357 6.21798 73.8356 7.55019C75.8346 8.8816 76.4358 11.5285 75.1777 13.4633Z" fill="#0EAF79"></path><path fill-rule="evenodd" clip-rule="evenodd" d="M71.1502 10.251C72.2286 9.75628 73.0673 9.56713 73.5978 10.2543C74.1784 11.0031 73.8417 12.0314 72.886 12.9216L73.362 13.5376L72.9675 13.8489L72.498 13.2439C71.7575 13.8187 71.0319 14.0883 70.7775 14.1517C70.589 14.0459 70.0766 13.6488 69.6082 13.2464L69.9163 12.9065C70.4472 13.1916 71.3929 13.476 72.2541 12.9285L71.09 11.4264L70.7759 11.5726C69.7867 12.011 68.9885 12.1061 68.4882 11.4635C68.0073 10.8422 68.2108 9.87679 69.194 8.97598L68.7813 8.44081L69.1766 8.12665L69.5747 8.63976C69.928 8.35951 70.3778 8.09151 70.9237 7.86151C71.2035 8.06782 71.4885 8.28597 71.9452 8.71779L71.6367 9.07812C71.1433 8.75619 70.5397 8.52905 69.8214 8.95923L70.9136 10.3699L71.1502 10.251ZM69.4269 9.27421C68.9271 9.73789 68.8798 10.2097 69.1132 10.5084C69.3999 10.8785 69.8404 10.874 70.4553 10.604L69.4269 9.27421ZM72.8904 11.2499C73.2243 11.6833 73.0519 12.2418 72.6445 12.6046L71.5467 11.1878C72.3231 10.8765 72.6607 10.9565 72.8904 11.2499Z" fill="#86D7A8"></path><path opacity="0.9197" d="M22.3683 42.2574C22.1713 42.1536 22.0098 42.2529 22.0098 42.4776V43.6639C22.0098 43.8886 22.1491 44.1905 22.3195 44.3347L36.0853 55.9954C36.2557 56.1396 36.5738 56.2263 36.7927 56.1883L88.3283 47.2206C88.5471 47.1822 88.726 46.9673 88.726 46.7426V45.7066C88.726 45.4819 88.5455 45.3177 88.3247 45.3414L38.9189 50.6956C38.698 50.7197 38.356 50.6543 38.159 50.5509L22.3683 42.2574Z" fill="#0E8E60"></path><path d="M22.3223 42.3276C22.1503 42.1854 22.189 42.0396 22.4083 42.0036L73.5095 33.6161C73.7287 33.5801 74.0509 33.6643 74.2249 33.804L88.4082 45.1342C88.5827 45.2731 88.5463 45.4173 88.3271 45.4541L37.0079 54.0859C36.789 54.1227 36.4688 54.0365 36.2968 53.8943L22.3223 42.3276Z" fill="#0EAF79"></path><path fill-rule="evenodd" clip-rule="evenodd" d="M73.5096 33.6161C73.7289 33.5801 74.0507 33.6647 74.2251 33.804L88.4084 45.1342C88.5828 45.2735 88.5465 45.4181 88.3272 45.4557L36.9567 54.2391C36.7379 54.2763 36.4189 54.1897 36.2481 54.0459L22.32 42.3304C22.1492 42.1866 22.1888 42.0396 22.408 42.0036L73.5096 33.6161ZM27.6028 43.5213C27.384 43.5581 27.3493 43.6998 27.5261 43.8359L37.3956 51.4325C37.5725 51.5685 37.8959 51.6486 38.1147 51.6102L82.4917 43.8359C82.7105 43.7975 82.7485 43.6504 82.5757 43.509L73.5282 36.1081C73.3554 35.9668 73.0348 35.8814 72.816 35.9181L27.6028 43.5213Z" fill="#0EAF79"></path><path d="M31.129 41.7708C31.129 41.7708 33.3113 44.5206 29.5063 46.3745L25.1978 43.0866L31.129 41.7708Z" fill="#0EAF79"></path><path d="M34.4834 49.6321C34.4834 49.6321 39.5825 48.4478 42.6991 51.6805L37.8354 53.0589L34.4834 49.6321Z" fill="#0EAF79"></path><path d="M75.88 37.3999C75.88 37.3999 70.9783 38.7182 68.5586 35.5497C68.5586 35.5497 72.1234 34.9548 72.2918 34.9548C72.4609 34.9544 75.88 37.3999 75.88 37.3999Z" fill="#0EAF79"></path><path d="M81.1599 41.4113C81.1599 41.4113 78.5581 42.3386 78.3457 45.4471L83.8332 43.8326L81.1599 41.4113Z" fill="#0EAF79"></path><path d="M42.913 45.1959C42.982 45.9006 42.2924 46.5461 41.3734 46.636C40.4557 46.7279 39.6554 46.2295 39.5876 45.524C39.5198 44.8197 40.2094 44.1742 41.1272 44.0827C42.0465 43.9932 42.846 44.4904 42.913 45.1959Z" fill="#0EAF79"></path><path d="M70.2223 41.1678C70.2901 41.8733 69.6005 42.5188 68.6828 42.6095C67.7638 42.7006 66.9635 42.2014 66.8957 41.4971C66.8279 40.7924 67.5175 40.1469 68.4361 40.0554C69.3546 39.9663 70.1541 40.4635 70.2223 41.1678Z" fill="#0EAF79"></path><path d="M59.3913 45.9782C58.1336 47.911 54.5018 48.3922 52.5024 47.06C50.5029 45.727 49.9013 43.0797 51.1611 41.1453C52.4192 39.2126 56.0502 38.7333 58.05 40.0635C60.0492 41.3974 60.6495 44.043 59.3913 45.9782Z" fill="#0EAF79"></path><path fill-rule="evenodd" clip-rule="evenodd" d="M55.3648 42.7668C56.4437 42.272 57.2827 42.0821 57.8124 42.7684C58.3926 43.518 58.0555 44.5463 57.1002 45.4357L57.577 46.0534L57.1825 46.3647L56.713 45.7584C55.9717 46.3328 55.2461 46.602 54.9925 46.6674C54.804 46.5616 54.2916 46.1637 53.8232 45.7609L54.1301 45.421C54.6611 45.707 55.6071 45.9913 56.4691 45.4443L55.3042 43.9417L54.9909 44.0875C54.0009 44.5263 53.2027 44.6207 52.7028 43.9793C52.2215 43.3559 52.425 42.3917 53.409 41.4913L52.9955 40.9561L53.3912 40.6424L53.7893 41.1543C54.1422 40.8748 54.5924 40.6064 55.1383 40.3773C55.4173 40.5836 55.7024 40.8013 56.1598 41.2323L55.8513 41.5922C55.3571 41.2711 54.7535 41.044 54.036 41.4742L55.1282 42.8856L55.3648 42.7668ZM53.642 41.7895C53.1417 42.2532 53.0949 42.7243 53.3282 43.0225C53.6153 43.3947 54.0562 43.3894 54.6703 43.1201L53.642 41.7895ZM57.105 43.7648C57.4397 44.197 57.2673 44.7563 56.8591 45.1195L55.7613 43.7035C56.5385 43.3918 56.8753 43.4723 57.105 43.7648Z" fill="#0EAF79"></path><path opacity="0.9197" d="M22.3683 38.7677C22.1713 38.6639 22.0098 38.7632 22.0098 38.9879V40.1734C22.0098 40.3981 22.1491 40.7 22.3195 40.8442L36.0853 52.5049C36.2557 52.6491 36.5738 52.7358 36.7927 52.6978L88.3283 43.7309C88.5471 43.6925 88.726 43.4776 88.726 43.2529V42.2173C88.726 41.9926 88.5455 41.8284 88.3247 41.8521L38.9189 47.2042C38.698 47.2283 38.356 47.163 38.159 47.0596L22.3683 38.7677Z" fill="#0E8E60"></path><path d="M22.3219 38.8383C22.1504 38.6958 22.1891 38.5499 22.4084 38.514L73.5095 30.1248C73.7288 30.0888 74.051 30.1734 74.225 30.3127L88.4083 41.6445C88.5827 41.7839 88.5464 41.9281 88.3272 41.9648L36.995 50.5926C36.7762 50.6298 36.456 50.5432 36.2844 50.4006L22.3219 38.8383Z" fill="#0EAF79"></path><path fill-rule="evenodd" clip-rule="evenodd" d="M73.5096 30.1248C73.7289 30.0888 74.0507 30.1734 74.2251 30.3127L88.4084 41.645C88.5828 41.7843 88.5465 41.9289 88.3272 41.9665L36.9567 50.7487C36.7379 50.7858 36.4189 50.6992 36.2481 50.5554L22.32 38.8408C22.1492 38.697 22.1888 38.5499 22.408 38.514L73.5096 30.1248ZM27.6028 40.0317C27.384 40.0684 27.3493 40.2102 27.5261 40.3462L37.396 47.942C37.5725 48.0781 37.8963 48.1582 38.1151 48.1198L82.4917 40.345C82.7105 40.3066 82.7485 40.1595 82.5757 40.0182L73.5282 32.6185C73.3554 32.4771 73.0348 32.3917 72.816 32.4285L27.6028 40.0317Z" fill="#0EAF79"></path><path d="M31.129 38.2795C31.129 38.2795 33.3113 41.0301 29.5063 42.8836L25.1978 39.5954L31.129 38.2795Z" fill="#0EAF79"></path><path d="M34.4834 46.1417C34.4834 46.1417 39.5825 44.9574 42.6991 48.1905L37.8354 49.5684L34.4834 46.1417Z" fill="#0EAF79"></path><path d="M75.88 33.9102C75.88 33.9102 70.9783 35.2277 68.5586 32.0592C68.5586 32.0592 72.1234 31.4644 72.2918 31.4644C72.4609 31.4639 75.88 33.9102 75.88 33.9102Z" fill="#0EAF79"></path><path d="M81.1599 37.9216C81.1599 37.9216 78.5581 38.849 78.3457 41.9579L83.8332 40.343L81.1599 37.9216Z" fill="#0EAF79"></path><ellipse cx="41.2496" cy="41.8708" rx="1.67099" ry="1.2835" transform="rotate(-5.57206 41.2496 41.8708)" fill="#0EAF79"></ellipse><path d="M70.2223 37.6781C70.2901 38.3829 69.6005 39.0292 68.6828 39.1182C67.7638 39.2101 66.9635 38.7117 66.8957 38.0062C66.8279 37.3011 67.5175 36.6564 68.4361 36.5657C69.3546 36.4758 70.1541 36.9742 70.2223 37.6781Z" fill="#0EAF79"></path><path d="M59.3913 42.4878C58.1336 44.4218 54.5018 44.901 52.5024 43.5687C50.5029 42.2369 49.9013 39.5905 51.1611 37.6561C52.4192 35.7229 56.0502 35.2421 58.05 36.5743C60.0492 37.9069 60.6495 40.5534 59.3913 42.4878Z" fill="#0EAF79"></path><path fill-rule="evenodd" clip-rule="evenodd" d="M55.3648 39.2763C56.4437 38.7815 57.2827 38.5924 57.8124 39.2787C58.3926 40.0276 58.0555 41.0567 57.1002 41.946L57.577 42.5629L57.1825 42.8734L56.713 42.2684C55.9717 42.8432 55.2461 43.1124 54.9925 43.1765C54.804 43.0711 54.2916 42.674 53.8232 42.2716L54.1301 41.9317C54.6611 42.2157 55.6071 42.5012 56.4691 41.9538L55.3042 40.4516L54.9909 40.5979C54.0009 41.0354 53.2027 41.1314 52.7028 40.488C52.2215 39.8658 52.425 38.9021 53.409 38.0008L52.9955 37.4661L53.3912 37.1519L53.7893 37.6646C54.1422 37.3844 54.5924 37.1168 55.1383 36.8868C55.4173 37.0923 55.7024 37.3108 56.1598 37.7418L55.8513 38.1026C55.3571 37.7806 54.7535 37.5543 54.036 37.9837L55.1282 39.3952L55.3648 39.2763ZM53.642 38.2995C53.1417 38.7623 53.0949 39.2338 53.3282 39.5332C53.6153 39.9042 54.0562 39.8993 54.6703 39.6297L53.642 38.2995ZM57.105 40.2751C57.4397 40.7082 57.2673 41.2658 56.8591 41.629L55.7613 40.213C56.5385 39.9009 56.8753 39.981 57.105 40.2751Z" fill="#0EAF79"></path><path opacity="0.9197" d="M22.3683 35.2674C22.1713 35.1636 22.0098 35.2629 22.0098 35.4876V36.6731C22.0098 36.8978 22.1491 37.1997 22.3195 37.3439L36.0853 49.0046C36.2557 49.1488 36.5738 49.2354 36.7927 49.1975L88.3283 40.2298C88.5471 40.1914 88.726 39.9765 88.726 39.7518V38.7162C88.726 38.4915 88.5455 38.3273 88.3247 38.351L38.9189 43.7031C38.698 43.7272 38.356 43.6619 38.159 43.5585L22.3683 35.2674Z" fill="#0E8E60"></path><path d="M22.326 35.3331C22.152 35.1934 22.1891 35.0496 22.4084 35.0137L73.5095 26.6245C73.7288 26.5885 74.051 26.6731 74.225 26.8124L88.4083 38.1442C88.5827 38.2835 88.546 38.4257 88.3264 38.4604L36.7935 46.5841C36.5739 46.6188 36.2521 46.5326 36.0785 46.3929L22.326 35.3331Z" fill="#86D7A8"></path><path fill-rule="evenodd" clip-rule="evenodd" d="M73.5096 26.6245C73.7289 26.5886 74.0507 26.6727 74.2251 26.812L88.4084 38.1447C88.5828 38.284 88.5465 38.4286 88.3272 38.4662L36.9567 47.2488C36.7379 47.286 36.4189 47.1994 36.2481 47.0556L22.32 35.3405C22.1492 35.1967 22.1888 35.0496 22.408 35.0137L73.5096 26.6245ZM27.6028 36.5306C27.384 36.5673 27.3493 36.7091 27.5261 36.8451L37.396 44.4418C37.5729 44.5778 37.8963 44.6579 38.1151 44.6195L82.4917 36.8443C82.7105 36.8059 82.7485 36.6588 82.5757 36.5175L73.5282 29.1178C73.3554 28.9764 73.0348 28.891 72.816 28.9278L27.6028 36.5306Z" fill="#0EAF79"></path><path d="M31.129 34.7796C31.129 34.7796 33.3113 37.5294 29.5063 39.3833L25.1978 36.0951L31.129 34.7796Z" fill="#0EAF79"></path><path d="M34.4834 42.6418C34.4834 42.6418 39.5825 41.4575 42.6991 44.6898L37.8354 46.0673L34.4834 42.6418Z" fill="#0EAF79"></path><path d="M75.88 30.4092C75.88 30.4092 70.9783 31.7271 68.5586 28.5577C68.5586 28.5577 72.1234 27.9641 72.2918 27.9641C72.4609 27.9641 75.88 30.4092 75.88 30.4092Z" fill="#0EAF79"></path><path d="M81.1599 34.4218C81.1599 34.4218 78.5581 35.3483 78.3457 38.4568L83.8332 36.8431L81.1599 34.4218Z" fill="#0EAF79"></path><ellipse cx="41.25" cy="38.3704" rx="1.67099" ry="1.28227" transform="rotate(-5.57206 41.25 38.3704)" fill="#0EAF79"></ellipse><path d="M70.2223 34.1775C70.2901 34.883 69.6005 35.5285 68.6828 35.6179C67.7638 35.709 66.9635 35.211 66.8957 34.5063C66.8279 33.8 67.5175 33.1553 68.4361 33.0658C69.3546 32.9751 70.1541 33.4727 70.2223 34.1775Z" fill="#0EAF79"></path><path d="M59.3913 38.9871C58.1336 40.9202 54.5018 41.4003 52.5024 40.0676C50.5029 38.7366 49.9013 36.0894 51.1611 34.1558C52.4192 32.2226 56.0502 31.7418 58.05 33.074C60.0492 34.4054 60.6495 37.0523 59.3913 38.9871Z" fill="#0EAF79"></path><path fill-rule="evenodd" clip-rule="evenodd" d="M55.3648 35.7756C56.4437 35.2804 57.2827 35.0913 57.8124 35.7789C58.3926 36.5273 58.0555 37.5556 57.1002 38.4457L57.577 39.0618L57.1825 39.3735L56.713 38.7681C55.9717 39.3433 55.2461 39.6125 54.9925 39.6758C54.804 39.57 54.2916 39.1729 53.8232 38.7705L54.1301 38.4306C54.6611 38.7158 55.6071 39.0001 56.4691 38.4531L55.3042 36.9505L54.9909 37.0972C54.0009 37.5351 53.2027 37.6303 52.7028 36.9877C52.2215 36.3663 52.425 35.401 53.409 34.4997L52.9955 33.965L53.3912 33.6512L53.7893 34.1639C54.1422 33.8833 54.5924 33.6157 55.1383 33.3857C55.4173 33.5924 55.7024 33.8101 56.1598 34.242L55.8513 34.6023C55.3571 34.2804 54.7535 34.0536 54.036 34.4838L55.1282 35.8941L55.3648 35.7756ZM53.642 34.798C53.1417 35.2617 53.0949 35.7335 53.3282 36.0321C53.6153 36.4023 54.0562 36.3978 54.6703 36.1277L53.642 34.798ZM57.105 36.774C57.4397 37.2071 57.2673 37.7659 56.8591 38.1287L55.7613 36.7119C56.5385 36.4006 56.8753 36.4807 57.105 36.774Z" fill="#86D7A8"></path><path d="M130.613 40.5874C136.078 40.5874 139.655 38.0558 139.565 37.2152C139.518 36.7754 139.518 35.9484 139.565 34.7344H121.708C121.708 35.3654 121.708 36.1046 121.708 36.952C121.708 38.0567 125.147 40.5874 130.613 40.5874Z" fill="#E69F27"></path><path d="M130.613 38.7448C136.078 38.7448 139.655 36.2131 139.565 35.3725C139.518 34.9327 139.518 34.1058 139.565 32.8917H121.708C121.708 33.5227 121.708 34.2619 121.708 35.1093C121.708 36.2141 125.147 38.7448 130.613 38.7448Z" fill="#F1C732"></path><path d="M130.613 36.9021C136.078 36.9021 139.655 34.3704 139.565 33.5299C139.518 33.0901 139.518 32.2631 139.565 31.0491H121.708C121.708 31.6801 121.708 32.4193 121.708 33.2667C121.708 34.3714 125.147 36.9021 130.613 36.9021Z" fill="#E69F27"></path><path d="M130.613 35.0595C136.078 35.0595 139.655 32.5278 139.565 31.6872C139.518 31.2474 139.518 30.4205 139.565 29.2064H121.708C121.708 29.8374 121.708 30.5766 121.708 31.424C121.708 32.5288 125.147 35.0595 130.613 35.0595Z" fill="#F1C732"></path><path d="M130.613 33.2168C136.078 33.2168 139.655 30.6851 139.565 29.8446C139.518 29.4048 139.518 28.5778 139.565 27.3638H121.708C121.708 27.9948 121.708 28.734 121.708 29.5814C121.708 30.6861 125.147 33.2168 130.613 33.2168Z" fill="#E69F27"></path><path d="M130.613 31.3742C136.078 31.3742 139.655 28.8425 139.565 28.0019C139.518 27.5621 139.518 26.7352 139.565 25.5211H121.708C121.708 26.1521 121.708 26.8913 121.708 27.7387C121.708 28.8435 125.147 31.3742 130.613 31.3742Z" fill="#F1C732"></path><path d="M130.613 29.5314C136.078 29.5314 139.655 26.9998 139.565 26.1592C139.518 25.7194 139.518 24.8924 139.565 23.6784H121.708C121.708 24.3094 121.708 25.0486 121.708 25.896C121.708 27.0008 125.147 29.5314 130.613 29.5314Z" fill="#E69F27"></path><path d="M130.613 27.6888C136.078 27.6888 139.655 25.1571 139.565 24.3166C139.518 23.8767 139.518 23.0498 139.565 21.8358H121.708C121.708 22.4667 121.708 23.2059 121.708 24.0533C121.708 25.1581 125.147 27.6888 130.613 27.6888Z" fill="#F1C732"></path><path d="M130.613 25.8461C136.078 25.8461 139.655 23.3145 139.565 22.4739C139.518 22.0341 139.518 21.2071 139.565 19.9931H121.708C121.708 20.6241 121.708 21.3633 121.708 22.2107C121.708 23.3155 125.147 25.8461 130.613 25.8461Z" fill="#E69F27"></path><path d="M130.613 24.0035C136.078 24.0035 139.655 21.4718 139.565 20.6313C139.518 20.1914 139.518 19.3645 139.565 18.1505H121.708C121.708 18.7814 121.708 19.5206 121.708 20.368C121.708 21.4728 125.147 24.0035 130.613 24.0035Z" fill="#F1C732"></path><path d="M130.613 22.1608C136.078 22.1608 139.655 19.6292 139.565 18.7886C139.518 18.3488 139.518 17.5218 139.565 16.3078H121.708C121.708 16.9388 121.708 17.678 121.708 18.5254C121.708 19.6302 125.147 22.1608 130.613 22.1608Z" fill="#E69F27"></path><ellipse cx="130.634" cy="16.1762" rx="8.93147" ry="4.08017" fill="#F1C732"></ellipse><path fill-rule="evenodd" clip-rule="evenodd" d="M130.634 18.9401C134.551 18.9401 137.726 17.6437 137.726 16.0445C137.726 14.4453 134.551 13.1489 130.634 13.1489C126.716 13.1489 123.541 14.4453 123.541 16.0445C123.541 17.6437 126.716 18.9401 130.634 18.9401Z" stroke="#E69F27" stroke-width="0.525" stroke-linejoin="round" stroke-dasharray="0.79 0.79"></path><path d="M116.263 45.3204C121.728 45.3204 125.305 42.7853 125.215 41.9436C125.168 41.5032 125.168 40.6752 125.215 39.4595H107.357C107.357 40.0913 107.357 40.8315 107.357 41.6801C107.357 42.7863 110.797 45.3204 116.263 45.3204Z" fill="#E69F27"></path><path d="M116.263 43.4753C121.728 43.4753 125.305 40.9402 125.215 40.0985C125.168 39.6581 125.168 38.83 125.215 37.6143H107.357C107.357 38.2462 107.357 38.9864 107.357 39.8349C107.357 40.9412 110.797 43.4753 116.263 43.4753Z" fill="#F1C732"></path><path d="M116.263 41.6301C121.728 41.6301 125.305 39.095 125.215 38.2533C125.168 37.8129 125.168 36.9848 125.215 35.7692H107.357C107.357 36.401 107.357 37.1412 107.357 37.9897C107.357 39.096 110.797 41.6301 116.263 41.6301Z" fill="#E69F27"></path><path d="M116.263 39.785C121.728 39.785 125.305 37.2499 125.215 36.4082C125.168 35.9677 125.168 35.1397 125.215 33.924H107.357C107.357 34.5559 107.357 35.296 107.357 36.1446C107.357 37.2509 110.797 39.785 116.263 39.785Z" fill="#F1C732"></path><path d="M116.263 37.9398C121.728 37.9398 125.305 35.4047 125.215 34.563C125.168 34.1226 125.168 33.2945 125.215 32.0789H107.357C107.357 32.7107 107.357 33.4509 107.357 34.2994C107.357 35.4057 110.797 37.9398 116.263 37.9398Z" fill="#E69F27"></path><ellipse cx="116.284" cy="31.9471" rx="8.93147" ry="4.08568" fill="#F1C732"></ellipse><path fill-rule="evenodd" clip-rule="evenodd" d="M116.284 34.7148C120.201 34.7148 123.376 33.4166 123.376 31.8153C123.376 30.2139 120.201 28.9158 116.284 28.9158C112.366 28.9158 109.191 30.2139 109.191 31.8153C109.191 33.4166 112.366 34.7148 116.284 34.7148Z" stroke="#E69F27" stroke-width="0.525" stroke-linejoin="round" stroke-dasharray="0.79 0.79"></path><path d="M8.91065 39.458C14.3762 39.458 17.9529 36.923 17.8629 36.0813C17.8157 35.6408 17.8157 34.8128 17.8629 33.5971H0.00537109C0.00537109 34.2289 0.00537109 34.9691 0.00537109 35.8177C0.00537109 36.924 3.44513 39.458 8.91065 39.458Z" fill="#E69F27"></path><path d="M8.91065 37.6129C14.3762 37.6129 17.9529 35.0778 17.8629 34.2361C17.8157 33.7957 17.8157 32.9676 17.8629 31.752H0.00537109C0.00537109 32.3838 0.00537109 33.124 0.00537109 33.9725C0.00537109 35.0788 3.44513 37.6129 8.91065 37.6129Z" fill="#F1C732"></path><path d="M8.91065 35.603C14.3762 35.603 17.9529 33.0679 17.8629 32.2262C17.8157 31.7858 17.8157 30.9577 17.8629 29.7421H0.00537109C0.00537109 30.3739 0.00537109 31.1141 0.00537109 31.9626C0.00537109 33.0689 3.44513 35.603 8.91065 35.603Z" fill="#E69F27"></path><path d="M8.91065 33.7579C14.3762 33.7579 17.9529 31.2228 17.8629 30.3811C17.8157 29.9406 17.8157 29.1126 17.8629 27.8969H0.00537109C0.00537109 28.5288 0.00537109 29.2689 0.00537109 30.1175C0.00537109 31.2238 3.44513 33.7579 8.91065 33.7579Z" fill="#F1C732"></path><path d="M8.91065 31.9127C14.3762 31.9127 17.9529 29.3776 17.8629 28.5359C17.8157 28.0955 17.8157 27.2674 17.8629 26.0518H0.00537109C0.00537109 26.6836 0.00537109 27.4238 0.00537109 28.2723C0.00537109 29.3786 3.44513 31.9127 8.91065 31.9127Z" fill="#E69F27"></path><path d="M8.91065 30.0675C14.3762 30.0675 17.9529 27.5325 17.8629 26.6908C17.8157 26.2503 17.8157 25.4223 17.8629 24.2066H0.00537109C0.00537109 24.8384 0.00537109 25.5786 0.00537109 26.4272C0.00537109 27.5335 3.44513 30.0675 8.91065 30.0675Z" fill="#F1C732"></path><path d="M8.91065 28.2224C14.3762 28.2224 17.9529 25.6873 17.8629 24.8456C17.8157 24.4052 17.8157 23.5771 17.8629 22.3615H0.00537109C0.00537109 22.9933 0.00537109 23.7335 0.00537109 24.582C0.00537109 25.6883 3.44513 28.2224 8.91065 28.2224Z" fill="#E69F27"></path><ellipse cx="8.93147" cy="22.2297" rx="8.93147" ry="4.08568" fill="#F1C732"></ellipse><path fill-rule="evenodd" clip-rule="evenodd" d="M8.93151 24.9974C12.8487 24.9974 16.0241 23.6992 16.0241 22.0979C16.0241 20.4965 12.8487 19.1984 8.93151 19.1984C5.01435 19.1984 1.83887 20.4965 1.83887 22.0979C1.83887 23.6992 5.01435 24.9974 8.93151 24.9974Z" stroke="#E69F27" stroke-width="0.525" stroke-linejoin="round" stroke-dasharray="0.79 0.79"></path><path d="M146.405 51.1143C151.8 51.1143 155.306 48.9904 155.217 48.1671C155.171 47.7362 155.171 46.9263 155.217 45.7371H137.592C137.592 46.3552 137.592 47.0792 137.592 47.9092C137.592 48.9914 141.011 51.1143 146.405 51.1143Z" fill="#E69F27"></path><ellipse cx="146.413" cy="45.6072" rx="8.81548" ry="4.02728" fill="#F1C732"></ellipse><path fill-rule="evenodd" clip-rule="evenodd" d="M146.485 48.3354C150.584 48.3354 153.907 47.0558 153.907 45.4773C153.907 43.8989 150.584 42.6193 146.485 42.6193C142.385 42.6193 139.062 43.8989 139.062 45.4773C139.062 47.0558 142.385 48.3354 146.485 48.3354Z" stroke="#E69F27" stroke-width="0.525" stroke-linejoin="round" stroke-dasharray="0.79 0.79"></path><path d="M150.984 48.5143C155.688 50.6088 159.148 49.8772 159.636 49.1947C159.972 48.725 160.379 48.0012 160.856 47.0233L145.486 40.1801C145.067 40.6649 144.773 41.3263 144.602 42.1645C144.382 43.2479 146.28 46.4199 150.984 48.5143Z" fill="#E69F27"></path><ellipse cx="153.23" cy="43.4862" rx="8.41478" ry="4.02728" transform="rotate(24 153.23 43.4862)" fill="#F1C732"></ellipse><path fill-rule="evenodd" clip-rule="evenodd" d="M152.183 46.0063C155.758 47.5978 159.176 47.7191 159.818 46.2771C160.46 44.8351 158.083 42.3759 154.508 40.7843C150.934 39.1927 147.515 39.0715 146.873 40.5135C146.231 41.9555 148.609 44.4147 152.183 46.0063Z" stroke="#E69F27" stroke-width="0.525" stroke-linejoin="round" stroke-dasharray="0.74 0.74"></path><path d="M27.2944 9.37026C27.2944 10.0856 26.7121 10.6662 25.9928 10.6662C25.2747 10.6662 24.6924 10.0856 24.6924 9.37026V2.05194C24.6924 1.33661 25.2747 0.755981 25.9928 0.755981C26.7121 0.755981 27.2944 1.33661 27.2944 2.05194V9.37026Z" fill="#FFA32E"></path><path d="M29.5552 4.49365C30.2528 4.49365 30.8176 5.05626 30.8176 5.75063C30.8176 6.445 30.2528 7.00761 29.5552 7.00761H22.4304C21.7339 7.00761 21.168 6.445 21.168 5.75063C21.168 5.05626 21.7339 4.49365 22.4304 4.49365H29.5552Z" fill="#FFA32E"></path><path d="M158.082 21.4663C158.082 22.1816 157.5 22.7622 156.781 22.7622C156.063 22.7622 155.48 22.1816 155.48 21.4663V14.1479C155.48 13.4326 156.063 12.852 156.781 12.852C157.5 12.852 158.082 13.4326 158.082 14.1479V21.4663Z" fill="#FFE473"></path><path d="M160.343 16.5897C161.041 16.5897 161.606 17.1523 161.606 17.8466C161.606 18.541 161.041 19.1036 160.343 19.1036H153.218C152.522 19.1036 151.956 18.541 151.956 17.8466C151.956 17.1523 152.522 16.5897 153.218 16.5897H160.343Z" fill="#FFE473"></path></svg>