<svg xmlns="http://www.w3.org/2000/svg" width="130" height="61" viewBox="0 0 130 61" fill="none"><path d="M129.01 19.8861C129.01 30.8672 120.108 39.77 109.125 39.77C98.1426 39.77 89.2402 30.8672 89.2402 19.8861C89.2402 8.90281 98.1422 0 109.125 0C120.108 0 129.01 8.90236 129.01 19.8861Z" fill="#F487A8"></path><path d="M118.409 16.8987L119.31 37.6753L98.9399 37.83L99.2845 14.55L118.409 16.8987Z" fill="#DDB78A"></path><path d="M105.057 26.3085L103.79 33.3783C103.79 33.3783 108.537 37.1202 112.52 32.9447L111.213 25.22L105.057 26.3085Z" fill="#F2E3D6"></path><path d="M117.37 18.5646C117.37 24.5318 110.81 31.1439 107.679 31.0388C103.435 30.8948 98.2938 23.2629 97.9897 18.5646C97.6049 12.6104 102.996 7.76001 107.679 7.76001C112.362 7.75956 117.37 12.5978 117.37 18.5646Z" fill="#F2E3D6"></path><path d="M110.34 12.3041C110.34 12.3041 103.07 20.2245 98.4269 21.34C98.4269 21.34 94.7744 8.14626 108.128 6.79767C108.128 6.79767 119.262 6.00328 118.279 20.5634C118.278 20.5634 113.141 16.4874 110.34 12.3041Z" fill="#DDB78A"></path><path d="M120.28 36.7908L112.403 32.98C112.403 32.98 108.931 35.8583 103.091 33.3829L96.0298 36.3879C96.0298 36.3879 107.578 45.9057 120.28 36.7908Z" fill="#D82E52"></path><circle cx="20.37" cy="21.34" r="20.37" fill="#8ACCA4"></circle><path d="M4.8501 34.4212L15.5597 31.7221C15.5597 31.7221 20.4763 34.5861 25.5721 31.04L36.8601 34.349C36.8601 34.349 22.6567 53.0454 4.8501 34.4212Z" fill="#06AE79"></path><path d="M15.52 26.5286V31.4861C15.52 31.4861 21.1064 35.2751 25.22 30.7844V24.3096C25.22 24.3096 15.52 23.6777 15.52 26.5286Z" fill="#AB652B"></path><path d="M13.491 24.7786C12.7242 25.3161 12.3076 24.5348 11.7748 24.1016C10.9415 23.426 10.2868 23.4416 9.80723 22.2739C9.39504 21.268 9.1856 20.2612 8.87479 19.1813C8.73501 18.6902 8.49431 18.4228 8.27772 17.957C7.91868 17.1793 7.93163 16.4395 7.87312 15.6212C7.85035 15.2834 7.73379 14.835 7.76505 14.5021C7.82713 13.8786 8.17635 13.7409 8.43223 13.2029C8.83995 12.3468 8.37016 11.3342 8.72429 10.4642C8.88908 10.0547 9.20927 9.63393 9.40755 9.23638C9.76034 8.52953 10.1859 7.90424 10.8616 7.56731C11.5524 7.22324 11.5341 7.27672 12.1147 6.73968C12.6291 6.26324 13.1802 5.95706 13.8264 5.80865C14.135 4.18993 15.769 3.90158 16.9993 3.77278C17.3516 3.734 17.5512 3.77456 17.9031 3.67606C18.4278 3.533 19.3893 2.66169 19.9989 2.97902C20.278 3.11985 20.3258 3.65824 20.583 3.86592C20.7598 4.01122 21.1479 2.94871 21.3551 3.01155C22.1107 3.23127 22.8806 3.70459 23.6233 3.87528C24.2592 4.02058 26.1468 4.50592 26.2594 5.5194C28.2582 5.65444 28.9442 5.17177 29.6395 7.52898C29.6971 7.72062 29.539 7.93767 29.627 8.09633C29.8181 8.4453 30.4719 8.67482 30.7398 9.02156C31.0547 9.42892 31.2583 9.91426 31.3865 10.4206C33.0508 10.3978 32.1434 12.9926 32.3511 13.814C32.5065 14.4223 33.2232 14.8622 33.5188 15.4113C34.0136 16.341 34.0543 16.9057 33.7832 17.7948C33.6653 18.1821 33.5506 18.2703 33.4693 18.6746C33.3277 19.3694 33.5604 19.4041 32.995 20.0023C32.5694 20.4515 31.6129 21.9592 31.1797 21.1909C29.911 22.8127 29.5582 24.6881 27.3236 25.1115C25.3162 25.4926 23.0307 24.7568 21.0157 24.6306C19.7452 24.5495 18.4354 24.6547 17.1935 24.7398C15.815 24.8383 14.7977 24.7274 13.5004 24.8727L13.491 24.7786Z" fill="#444445"></path><ellipse cx="20.3699" cy="18.915" rx="7.76" ry="10.185" fill="#AB652B"></ellipse><ellipse cx="13.0951" cy="19.4" rx="1.455" ry="1.94" fill="#AB652B"></ellipse><ellipse cx="27.6449" cy="19.4" rx="1.455" ry="1.94" fill="#AB652B"></ellipse><path d="M87.3 37.3472C87.3 49.9349 77.0944 60.14 64.5054 60.14C51.9155 60.14 41.71 49.9349 41.71 37.3472C41.71 24.7555 51.9155 14.55 64.5054 14.55C77.0944 14.55 87.3 24.7555 87.3 37.3472Z" fill="#79C4F7"></path><path d="M58.8998 21.0033C56.759 21.4672 54.6969 22.6299 53.2933 24.3249C52.2382 25.5992 51.2037 26.9276 50.5087 28.4182C49.869 29.7894 49.9539 30.9401 49.8465 32.4103C49.6748 34.7669 47.3213 36.2775 47.5447 38.6918C47.7187 40.5703 48.9438 42.3244 48.6709 44.2944C48.4452 45.9228 47.1824 47.8235 48.9267 49.0773C50.1212 49.9366 51.6848 49.6229 53.0326 49.4994C54.7355 49.3435 55.6158 50.3791 57.3237 50.436C60.1816 50.5311 62.032 48.8952 64.697 48.4167C66.5222 48.0888 67.9563 50.0157 69.7398 50.2663C71.7691 50.5515 71.8622 49.7145 73.6496 49.4141C74.9192 49.2013 74.8531 49.5847 76.6392 49.3124C81.2707 48.6068 78.0765 44.3571 78.1574 42.571C78.1983 41.6677 79.1109 39.4351 79.3753 38.5745C79.8536 37.019 79.2045 36.2188 78.5076 34.9535C77.8661 33.7885 77.9061 32.8048 77.7883 31.4586C77.4925 28.073 74.8774 25.0118 72.3837 22.8818C71.1559 21.8328 69.492 21.4903 68.0125 20.9091C66.7942 20.4306 63.7952 19.9428 58.8998 21.0033Z" fill="#2D2116"></path><path d="M59.1699 46.2111V52.9868C59.1699 52.9868 65.9802 56.6037 69.8399 51.9228V41.71C69.8399 41.71 64.7965 46.2442 59.1699 46.2111Z" fill="#BF9E7E"></path><path d="M59.3814 51.41L49.4702 54.4718C49.4702 54.4718 55.2635 61.0043 66.5771 60.0435C70.9431 59.6727 74.7612 58.5282 79.5402 54.4718L69.6334 51.41C69.6334 51.41 64.2887 54.2577 59.3814 51.41Z" fill="#2663BC"></path><path d="M74.6901 34.986C74.6901 41.4502 69.1755 48.5 64.0201 48.5C58.8639 48.5 53.3501 41.4502 53.3501 34.986C53.3501 28.5205 58.8639 23.28 64.0201 23.28C69.1755 23.28 74.6901 28.5205 74.6901 34.986Z" fill="#BF9E7E"></path><path d="M63.9467 26.8517C63.9467 26.8517 64.8353 31.6132 67.1504 31.1065C67.1504 31.1065 68.5921 29.844 68.1085 28.0266C68.1085 28.0266 69.5497 34.4781 75.6599 36.105C75.6599 36.105 75.636 30.9953 73.4911 28.2955C73.4911 28.2955 69.2796 21.0759 62.6812 22.4947C62.6812 22.4947 50.4918 25.371 52.632 36.86C52.6315 36.8609 61.8304 33.3343 63.9467 26.8517Z" fill="#2D2116"></path></svg>