<svg xmlns="http://www.w3.org/2000/svg" width="138" height="60" viewBox="0 0 138 60" fill="none"><g clip-path="url(#clip0_342_6737)"><path d="M109.477 53C114.679 53 118.084 50.8373 117.998 50.1193C117.954 49.7435 117.954 49.0371 117.998 48H101C101 48.539 101 49.1705 101 49.8944C101 50.8382 104.274 53 109.477 53Z" fill="#E69F27"></path><path d="M109.477 52C114.679 52 118.084 49.8373 117.998 49.1193C117.954 48.7435 117.954 48.0371 117.998 47H101C101 47.539 101 48.1705 101 48.8944C101 49.8382 104.274 52 109.477 52Z" fill="#F1C732"></path><path d="M109.477 50C114.679 50 118.084 47.8373 117.998 47.1193C117.954 46.7435 117.954 46.0371 117.998 45H101C101 45.539 101 46.1705 101 46.8944C101 47.8382 104.274 50 109.477 50Z" fill="#E69F27"></path><path d="M109.477 49C114.679 49 118.084 46.8373 117.998 46.1193C117.954 45.7435 117.954 45.0371 117.998 44H101C101 44.539 101 45.1705 101 45.8944C101 46.8382 104.274 49 109.477 49Z" fill="#F1C732"></path><path d="M109.477 47C114.679 47 118.084 44.8373 117.998 44.1193C117.954 43.7435 117.954 43.0371 117.998 42H101C101 42.539 101 43.1705 101 43.8944C101 44.8382 104.274 47 109.477 47Z" fill="#E69F27"></path><path d="M109.477 46C114.679 46 118.084 43.8373 117.998 43.1193C117.954 42.7435 117.954 42.0371 117.998 41H101C101 41.539 101 42.1705 101 42.8944C101 43.8382 104.274 46 109.477 46Z" fill="#F1C732"></path><path d="M109.477 44C114.679 44 118.084 41.8373 117.998 41.1193C117.954 40.7435 117.954 40.0371 117.998 39H101C101 39.539 101 40.1705 101 40.8944C101 41.8382 104.274 44 109.477 44Z" fill="#E69F27"></path><path d="M109.477 43C114.679 43 118.084 40.8373 117.998 40.1193C117.954 39.7435 117.954 39.0371 117.998 38H101C101 38.539 101 39.1705 101 39.8944C101 40.8382 104.274 43 109.477 43Z" fill="#F1C732"></path><path d="M109.477 41C114.679 41 118.084 38.8373 117.998 38.1193C117.954 37.7435 117.954 37.0371 117.998 36H101C101 36.539 101 37.1705 101 37.8944C101 38.8382 104.274 41 109.477 41Z" fill="#E69F27"></path><path d="M109.477 40C114.679 40 118.084 37.8373 117.998 37.1193C117.954 36.7435 117.954 36.0371 117.998 35H101C101 35.539 101 36.1705 101 36.8944C101 37.8382 104.274 40 109.477 40Z" fill="#F1C732"></path><path d="M109.477 38C114.679 38 118.084 35.8373 117.998 35.1193C117.954 34.7435 117.954 34.0371 117.998 33H101C101 33.539 101 34.1705 101 34.8944C101 35.8382 104.274 38 109.477 38Z" fill="#E69F27"></path><ellipse cx="109.5" cy="33" rx="8.5" ry="4" fill="#F1C732"></ellipse><path fill-rule="evenodd" clip-rule="evenodd" d="M109.5 35C113.09 35 116 33.8807 116 32.5C116 31.1193 113.09 30 109.5 30C105.91 30 103 31.1193 103 32.5C103 33.8807 105.91 35 109.5 35Z" stroke="#E69F27" stroke-width="0.612" stroke-linejoin="round" stroke-dasharray="0.73 0.73"></path><path d="M95.4769 60C100.679 60 104.084 57.8373 103.998 57.1193C103.954 56.7435 103.954 56.0371 103.998 55H87C87 55.539 87 56.1705 87 56.8944C87 57.8382 90.2743 60 95.4769 60Z" fill="#E69F27"></path><path d="M95.4769 59C100.679 59 104.084 56.8373 103.998 56.1193C103.954 55.7435 103.954 55.0371 103.998 54H87C87 54.539 87 55.1705 87 55.8944C87 56.8382 90.2743 59 95.4769 59Z" fill="#F1C732"></path><path d="M95.4769 57C100.679 57 104.084 54.8373 103.998 54.1193C103.954 53.7435 103.954 53.0371 103.998 52H87C87 52.539 87 53.1705 87 53.8944C87 54.8382 90.2743 57 95.4769 57Z" fill="#E69F27"></path><path d="M95.4769 56C100.679 56 104.084 53.8373 103.998 53.1193C103.954 52.7435 103.954 52.0371 103.998 51H87C87 51.539 87 52.1705 87 52.8944C87 53.8382 90.2743 56 95.4769 56Z" fill="#F1C732"></path><path d="M95.4769 54C100.679 54 104.084 51.8373 103.998 51.1193C103.954 50.7435 103.954 50.0371 103.998 49H87C87 49.539 87 50.1705 87 50.8944C87 51.8382 90.2743 54 95.4769 54Z" fill="#E69F27"></path><ellipse cx="95.5" cy="49" rx="8.5" ry="4" fill="#F1C732"></ellipse><path fill-rule="evenodd" clip-rule="evenodd" d="M95.5 51C99.0899 51 102 49.8807 102 48.5C102 47.1193 99.0899 46 95.5 46C91.9101 46 89 47.1193 89 48.5C89 49.8807 91.9101 51 95.5 51Z" stroke="#E69F27" stroke-width="0.612" stroke-linejoin="round" stroke-dasharray="0.73 0.73"></path><path d="M8.47688 57C13.6795 57 17.0841 54.8373 16.9984 54.1193C16.9536 53.7435 16.9536 53.0371 16.9984 52H0C0 52.539 0 53.1705 0 53.8944C0 54.8382 3.27428 57 8.47688 57Z" fill="#E69F27"></path><path d="M8.47688 56C13.6795 56 17.0841 53.8373 16.9984 53.1193C16.9536 52.7435 16.9536 52.0371 16.9984 51H0C0 51.539 0 52.1705 0 52.8944C0 53.8382 3.27428 56 8.47688 56Z" fill="#F1C732"></path><path d="M8.47688 55C13.6795 55 17.0841 52.8373 16.9984 52.1193C16.9536 51.7435 16.9536 51.0371 16.9984 50H0C0 50.539 0 51.1705 0 51.8944C0 52.8382 3.27428 55 8.47688 55Z" fill="#E69F27"></path><path d="M8.47688 54C13.6795 54 17.0841 51.8373 16.9984 51.1193C16.9536 50.7435 16.9536 50.0371 16.9984 49H0C0 49.539 0 50.1705 0 50.8944C0 51.8382 3.27428 54 8.47688 54Z" fill="#F1C732"></path><path d="M8.47688 53C13.6795 53 17.0841 50.8373 16.9984 50.1193C16.9536 49.7435 16.9536 49.0371 16.9984 48H0C0 48.539 0 49.1705 0 49.8944C0 50.8382 3.27428 53 8.47688 53Z" fill="#E69F27"></path><path d="M8.47688 52C13.6795 52 17.0841 49.8373 16.9984 49.1193C16.9536 48.7435 16.9536 48.0371 16.9984 47H0C0 47.539 0 48.1705 0 48.8944C0 49.8382 3.27428 52 8.47688 52Z" fill="#F1C732"></path><path d="M8.47688 51C13.6795 51 17.0841 48.8373 16.9984 48.1193C16.9536 47.7435 16.9536 47.0371 16.9984 46H0C0 46.539 0 47.1705 0 47.8944C0 48.8382 3.27428 51 8.47688 51Z" fill="#E69F27"></path><ellipse cx="8.5" cy="46" rx="8.5" ry="4" fill="#F1C732"></ellipse><path fill-rule="evenodd" clip-rule="evenodd" d="M8.5 49C12.0899 49 15 47.8807 15 46.5C15 45.1193 12.0899 44 8.5 44C4.91015 44 2 45.1193 2 46.5C2 47.8807 4.91015 49 8.5 49Z" stroke="#E69F27" stroke-width="0.612" stroke-linejoin="round" stroke-dasharray="0.73 0.73"></path><path d="M83 6.95385C83 7.53129 82.5524 8 81.9996 8C81.4476 8 81 7.53129 81 6.95385V1.04615C81 0.46871 81.4476 0 81.9996 0C82.5524 0 83 0.46871 83 1.04615V6.95385Z" fill="#00AEFF"></path><path d="M84.9534 3C85.5318 3 86 3.44759 86 4C86 4.55241 85.5318 5 84.9534 5H79.0466C78.4692 5 78 4.55241 78 4C78 3.44759 78.4692 3 79.0466 3H84.9534Z" fill="#00AEFF"></path><path d="M12 25.9538C12 26.5313 11.5524 27 10.9996 27C10.4476 27 10 26.5313 10 25.9538V20.0462C10 19.4687 10.4476 19 10.9996 19C11.5524 19 12 19.4687 12 20.0462V25.9538Z" fill="#FFA32E"></path><path d="M13.9534 22C14.5318 22 15 22.4476 15 23C15 23.5524 14.5318 24 13.9534 24H8.04662C7.46917 24 7 23.5524 7 23C7 22.4476 7.46917 22 8.04662 22H13.9534Z" fill="#FFA32E"></path><path d="M135 36.9538C135 37.5313 134.552 38 134 38C133.448 38 133 37.5313 133 36.9538V31.0462C133 30.4687 133.448 30 134 30C134.552 30 135 30.4687 135 31.0462V36.9538Z" fill="#FFE473"></path><path d="M136.953 33C137.532 33 138 33.4476 138 34C138 34.5524 137.532 35 136.953 35H131.047C130.469 35 130 34.5524 130 34C130 33.4476 130.469 33 131.047 33H136.953Z" fill="#FFE473"></path><path d="M63.0278 55.8717V56H45.3333V55.9859C36.2523 55.6079 29 47.7 29 38C29 28.3 36.2523 20.3921 45.3333 20.0141L45.3333 20H63.0278V20.1283C71.4617 21.1954 78 28.7899 78 38C78 47.2101 71.4617 54.8046 63.0278 55.8717Z" fill="#FFD4D8"></path><path d="M41 52H53V58.0411C53 59.123 52.1106 60 51.0135 60H42.9865C41.8894 60 41 59.123 41 58.0411V52Z" fill="#FFD4D8"></path><rect x="49" y="20" width="12" height="4" fill="#333333"></rect><circle cx="37" cy="30" r="2" fill="#333333"></circle><path d="M57 52H69V58.0411C69 59.123 68.1106 60 67.0135 60H58.9865C57.8894 60 57 59.123 57 58.0411V52Z" fill="#FFD4D8"></path><path d="M26.9729 34H31V44H26.9729C24.7787 44 23 42.246 23 40.0823V37.9177C23 35.754 24.7787 34 26.9729 34Z" fill="#FFD4D8"></path><path d="M31.9532 16H37.2341C42.6276 16 47 20.3851 47 25.7944V26H35.0996C34.1497 24.2459 33.3101 22.8173 32.5809 21.7143C32.1981 21.1353 31.5188 20.3353 30.5431 19.3143L30.5431 19.3143C29.7967 18.5333 29.8229 17.2933 30.6017 16.5447C30.9653 16.1952 31.4495 16 31.9532 16Z" fill="#FFD4D8"></path><path d="M81 33L76 36Z" fill="#FFD4D8"></path><path d="M81 33L76 36" stroke="#FFD4D8" stroke-width="5.84002" stroke-linecap="round"></path><path d="M53.3118 45.5551H54.2661V44.1767C56.5987 44.053 57.9595 42.6923 57.9595 40.5541C57.9595 38.4158 56.7931 37.3025 54.92 36.5956L54.2661 36.3659V33.9272C54.6372 34.104 54.8669 34.4397 54.9553 34.8815H57.6237C57.6237 33.1497 56.316 31.5593 54.2661 31.2765V29.8981H53.3118V31.2412C51.0146 31.3649 49.6715 32.7963 49.6715 34.9345C49.6715 36.8961 51.0322 38.0447 52.6757 38.6632L53.3118 38.8753V41.5437C52.764 41.3846 52.3753 40.9782 52.3576 40.289H49.6892C49.6715 42.4979 51.2089 43.947 53.3118 44.159V45.5551ZM52.3399 34.8815C52.3399 34.3337 52.7287 33.9272 53.3118 33.8389V35.9948C52.6933 35.7297 52.3399 35.4293 52.3399 34.8815ZM55.2911 40.5541C55.2911 41.1549 54.8316 41.5083 54.2661 41.5967V39.264C54.9376 39.6175 55.2911 40.0062 55.2911 40.5541Z" fill="#333333"></path></g><defs><clipPath id="clip0_342_6737"><rect width="138" height="60" fill="white"></rect></clipPath></defs></svg>