<svg width="125" height="116" viewBox="0 0 125 116" fill="none" xmlns="http://www.w3.org/2000/svg">
<path d="M63.6523 1.84404C65.6343 0.702563 68.0742 0.702562 70.0563 1.84404L113.996 27.149C115.984 28.2942 117.21 30.4142 117.21 32.709V83.291C117.21 85.5858 115.984 87.7058 113.996 88.851L70.0563 114.156C68.0742 115.297 65.6343 115.297 63.6523 114.156L19.7126 88.851C17.7241 87.7058 16.4986 85.5858 16.4986 83.291V32.709C16.4986 30.4142 17.7241 28.2942 19.7126 27.149L63.6523 1.84404Z" fill="#B6E1FD"/>
<path d="M116.27 28.4583L69.6691 1.62093C68.4174 0.900067 66.8545 1.80353 66.8545 3.24798V112.752C66.8545 114.196 68.4174 115.1 69.6691 114.379L116.27 87.5417C116.852 87.2065 117.21 86.5861 117.21 85.9146V30.0854C117.21 29.4139 116.852 28.7935 116.27 28.4583Z" fill="#91D2FC"/>
<path d="M117.195 57.2058H87.9555V79.8945C90.5436 79.9884 116.844 80.2403 117.195 79.8945L117.195 57.2058Z" fill="#3159B0"/>
<path d="M117.212 56.355H87.884L87.6683 75.6323H117.212C117.212 75.6323 117.212 56.8487 117.212 56.355Z" fill="#3C6CD3"/>
<path d="M88.4541 56.6974H86.6865C85.4691 56.6974 84.271 56.4009 83.2007 55.8349L70.1672 48.9426C69.024 48.338 67.7441 48.0214 66.4437 48.0214H54.0751C53.2487 48.0214 52.5787 48.675 52.5787 49.4813L53.4224 55.3309L45.603 61.4729C46.2117 63.3792 47.1029 65.9214 48.2767 69.0995L48.5001 69.7028C49.2264 71.6598 50.1749 74.1701 51.3454 77.2335C51.9452 78.8031 53.1206 81.125 54.5825 84.918H65.3685C67.0177 84.918 71.6248 84.3498 73.1882 83.8299C73.3045 83.7912 73.4197 83.7528 73.5339 83.7148C74.0217 83.5799 74.5032 83.4183 74.9762 83.2329C83.5832 80.328 85.4136 79.3868 85.7336 79.3131C86.1002 79.2287 87.007 78.9925 88.4541 79.3949V56.6974Z" fill="#FFB782"/>
<path fill-rule="evenodd" clip-rule="evenodd" d="M47.2681 39.6147L63.1473 60.45C63.5059 60.9205 63.4142 61.5919 62.9425 61.9496C62.7248 62.1147 62.452 62.1907 62.18 62.1618L55.2045 61.4232C54.7433 61.3744 54.3029 61.6266 54.1127 62.0484L51.6022 67.6167C51.3591 68.1558 50.724 68.3962 50.1836 68.1538C49.9854 68.0648 49.8189 67.9179 49.7062 67.7325L36.0176 45.2052C35.7105 44.6997 35.8723 44.0416 36.379 43.7353C36.4128 43.7149 36.4477 43.6963 36.4835 43.6797L45.9624 39.2917C46.4197 39.08 46.963 39.2144 47.2681 39.6147Z" fill="#3C6CD3"/>
<path fill-rule="evenodd" clip-rule="evenodd" d="M47.278 39.6275L63.1478 60.4505C63.5064 60.921 63.4147 61.5924 62.943 61.9501C62.7253 62.1152 62.4525 62.1911 62.1805 62.1623L54.9293 61.3945C54.6141 61.3611 54.3298 61.1904 54.1527 60.9282L41.132 41.6481L45.9554 39.3125C46.4152 39.0898 46.9687 39.2216 47.278 39.6275Z" fill="black" fill-opacity="0.2"/>
<path fill-rule="evenodd" clip-rule="evenodd" d="M24.894 45.0599L18.8834 70.5363C18.7477 71.1116 19.1052 71.6878 19.682 71.8232C19.9483 71.8857 20.2284 71.8444 20.4652 71.7077L26.5364 68.2028C26.9378 67.9711 27.4429 68.0228 27.7887 68.3311L32.3528 72.3994C32.7946 72.7932 33.4728 72.7552 33.8676 72.3145C34.0125 72.1528 34.1047 71.951 34.132 71.7359L37.4514 45.6025C37.5259 45.0161 37.1097 44.4806 36.5219 44.4063C36.4827 44.4013 36.4433 44.3986 36.4038 44.3979L25.9551 44.235C25.4511 44.2271 25.0095 44.5704 24.894 45.0599Z" fill="#3C6CD3"/>
<path fill-rule="evenodd" clip-rule="evenodd" d="M24.8905 45.0754L18.8834 70.5368C18.7477 71.1121 19.1052 71.6882 19.682 71.8236C19.9483 71.8861 20.2284 71.8448 20.4652 71.7082L26.7764 68.0648C27.0508 67.9064 27.2408 67.6351 27.2957 67.3237L31.329 44.4278L25.9703 44.251C25.4594 44.2341 25.0076 44.5791 24.8905 45.0754Z" fill="black" fill-opacity="0.2"/>
<path d="M30.7204 7.82926L29.7043 8.3409C28.0344 9.18177 26.1766 9.59416 24.3064 9.53916L22.4735 9.48525C19.7974 9.40655 17.3049 10.8561 16.0862 13.1997L15.6034 14.1282C14.615 16.0291 13.0768 17.6063 11.1822 18.6616L10.0578 19.2879C7.65887 20.6241 6.40893 23.3206 6.96936 25.9507L7.21463 27.1017C7.68243 29.297 7.4363 31.5863 6.51065 33.6497L5.98045 34.8316C4.86728 37.3129 5.50821 40.1999 7.5678 41.9816L8.31331 42.6265C10.0727 44.1485 11.2815 46.187 11.7621 48.4422L11.8077 48.6564C12.2803 50.8739 14.1114 52.5602 16.403 52.8881L18.5752 53.199C20.7381 53.5085 22.7522 54.4424 24.3606 55.8815L25.3982 56.8099C27.4377 58.6346 30.4872 58.8805 32.8326 57.4092L33.3186 57.1044C35.5692 55.6927 38.2593 55.1223 40.8911 55.4989L41.7214 55.6177C44.2505 55.9796 46.69 54.4903 47.4803 52.1018L47.6235 51.6689C48.417 49.2707 50.0401 47.2124 52.2118 45.8501L53.5466 45.0128C55.5063 43.7835 56.4916 41.5 56.0191 39.2826L55.9532 38.9735C55.4851 36.7769 55.7318 34.4863 56.6587 32.422L57.3186 30.9525C58.3416 28.6743 57.6705 26.0205 55.6854 24.4941L54.9412 23.9219C53.2296 22.6059 51.9613 20.8179 51.2975 18.7856L50.296 15.7189C49.5545 13.4483 47.4912 11.8451 45.0591 11.6498L44.3753 11.5949C42.2045 11.4206 40.1409 10.6194 38.4456 9.2929L37.3881 8.46534C35.4983 6.9866 32.8884 6.73762 30.7204 7.82926Z" fill="#F1C732"/>
<path d="M35.1062 50.7027C44.8901 48.6283 51.1657 39.1762 49.1232 29.5909C47.0806 20.0055 37.4934 13.9167 27.7095 15.9911C17.9256 18.0655 11.65 27.5177 13.6925 37.103C15.7351 46.6884 25.3223 52.7772 35.1062 50.7027Z" fill="white" fill-opacity="0.6"/>
<path d="M30.1895 24.9652C30.2917 24.5323 30.8915 24.4905 31.0531 24.905L33.2926 30.6514C33.3655 30.8384 33.5526 30.9552 33.7526 30.9386L39.91 30.4276C40.3539 30.3908 40.5793 30.9492 40.2341 31.2305L35.4507 35.1281C35.2948 35.2551 35.2413 35.4696 35.3193 35.6549L37.7089 41.3375C37.8814 41.7478 37.4209 42.1348 37.0463 41.8944L31.8478 38.5582C31.6791 38.45 31.4594 38.4653 31.3075 38.5959L26.6251 42.6213C26.2876 42.9114 25.7776 42.5921 25.8912 42.1618L27.4647 36.2028C27.516 36.0084 27.4331 35.8034 27.2611 35.6993L21.9805 32.5037C21.5993 32.2731 21.7446 31.6888 22.1894 31.6637L28.3581 31.3149C28.5584 31.3036 28.7275 31.1619 28.7735 30.9667L30.1895 24.9652Z" fill="#F1C732"/>
<path fill-rule="evenodd" clip-rule="evenodd" d="M65.9415 52.5713L56.1293 53.9856L45.603 61.4729L52.5788 79.8307L67.3408 79.6114L65.9415 52.5713Z" fill="#FFB782"/>
<path d="M42.9571 69.8903H55.5948C57.7818 69.8903 59.5547 71.6587 59.5547 73.8402C59.5547 76.0217 57.7818 77.7902 55.5948 77.7902H42.9571C40.7701 77.7902 38.9972 76.0217 38.9972 73.8402C38.9972 71.6587 40.7701 69.8903 42.9571 69.8903Z" fill="#F1A770"/>
<path d="M55.5948 69.8903H42.9571C40.7701 69.8903 38.9972 71.6587 38.9972 73.8402H59.5547C59.5547 71.6587 57.7818 69.8903 55.5948 69.8903Z" fill="#FFB782"/>
<path d="M55.5948 61.938H40.261C38.074 61.938 36.3011 63.7064 36.3011 65.888C36.3011 68.0695 38.074 69.8379 40.261 69.8379H55.5948C57.7818 69.8379 59.5547 68.0695 59.5547 65.888C59.5547 63.7064 57.7818 61.938 55.5948 61.938Z" fill="#F1A770"/>
<path d="M55.5948 61.938H40.261C38.074 61.938 36.3011 63.7064 36.3011 65.888H59.5547C59.5547 63.7064 57.7818 61.938 55.5948 61.938Z" fill="#FFB782"/>
<path d="M46.896 84.9182H58.0013C59.96 84.9182 61.5479 83.3343 61.5479 81.3805C61.5479 79.4267 59.96 77.8428 58.0013 77.8428H46.896C44.9373 77.8428 43.3494 79.4267 43.3494 81.3805C43.3494 83.3343 44.9373 84.9182 46.896 84.9182Z" fill="#F1A770"/>
<path d="M43.3494 81.3804C43.3494 79.4266 44.9373 77.8427 46.896 77.8427H58.0013C59.96 77.8427 61.5479 79.4266 61.5479 81.3804V81.3804H43.3494Z" fill="#FFB782"/>
<path d="M37.565 53.9856H55.5948C57.7818 53.9856 59.5547 55.7541 59.5547 57.9356C59.5547 60.1171 57.7818 61.8855 55.5948 61.8855H37.565C35.378 61.8855 33.6051 60.1171 33.6051 57.9356C33.6051 55.7541 35.378 53.9856 37.565 53.9856Z" fill="#F1A770"/>
<path d="M55.5948 53.9856H37.565C35.378 53.9856 33.6051 55.7541 33.6051 57.9356H59.5547C59.5547 55.7541 57.7818 53.9856 55.5948 53.9856Z" fill="#FFB782"/>
</svg>
