<svg xmlns="http://www.w3.org/2000/svg" width="143" height="91" viewBox="0 0 143 91" fill="none"><path d="M12.1403 12.9297C12.1403 13.8031 11.3032 14.512 10.2693 14.512C9.23699 14.512 8.3999 13.8031 8.3999 12.9297V3.99433C8.3999 3.12094 9.23699 2.41202 10.2693 2.41202C11.3032 2.41202 12.1403 3.12094 12.1403 3.99433V12.9297Z" fill="#00AEFF"></path><path d="M14.517 7C15.3918 7 16.1 7.71879 16.1 8.60591C16.1 9.49303 15.3918 10.2118 14.517 10.2118H5.58301C4.70962 10.2118 4 9.49303 4 8.60591C4 7.71879 4.70962 7 5.58301 7H14.517Z" fill="#00AEFF"></path><path d="M134.186 29.3563C134.186 30.2702 133.349 31.012 132.315 31.012C131.282 31.012 130.445 30.2702 130.445 29.3563V20.0065C130.445 19.0926 131.282 18.3508 132.315 18.3508C133.349 18.3508 134.186 19.0926 134.186 20.0065V29.3563Z" fill="#F5A724"></path><path d="M137.085 23.126C138.039 23.126 138.812 23.8448 138.812 24.7319C138.812 25.619 138.039 26.3378 137.085 26.3378H127.339C126.386 26.3378 125.612 25.619 125.612 24.7319C125.612 23.8448 126.386 23.126 127.339 23.126H137.085Z" fill="#F5A724"></path><path d="M41.1453 82.1202H54.101C54.5855 82.1202 54.9783 82.513 54.9783 82.9975C54.9783 83.2221 54.8921 83.4382 54.7374 83.6012L48.6896 89.976H41.1453C40.6608 89.976 40.2681 89.5833 40.2681 89.0988V82.9975C40.2681 82.513 40.6608 82.1202 41.1453 82.1202Z" fill="#333333"></path><path d="M41.1453 82.1202H54.0135C54.498 82.1202 54.8908 82.513 54.8908 82.9975C54.8908 83.244 54.787 83.4792 54.6049 83.6454L54.1331 84.076H40.2681V82.9975C40.2681 82.513 40.6608 82.1202 41.1453 82.1202Z" fill="black" fill-opacity="0.143275"></path><path d="M100.936 82.1202H87.98C87.4955 82.1202 87.1028 82.513 87.1028 82.9975C87.1028 83.2221 87.189 83.4382 87.3436 83.6012L93.3915 89.976H100.936C101.42 89.976 101.813 89.5833 101.813 89.0988V82.9975C101.813 82.513 101.42 82.1202 100.936 82.1202Z" fill="#333333"></path><path d="M100.852 82.1202H88.0009C87.5165 82.1202 87.1237 82.513 87.1237 82.9975C87.1237 83.2713 87.2516 83.5294 87.4694 83.6954L87.5872 83.785H101.729V82.9975C101.729 82.513 101.337 82.1202 100.852 82.1202Z" fill="black" fill-opacity="0.143275"></path><rect x="35" y="12" width="72.2903" height="70.9931" rx="4.67856" fill="#5D5C5C"></rect><rect x="43.1948" y="20.1468" width="55.9006" height="54.6996" rx="1.75446" fill="#B3B3B3"></rect><rect x="45.5361" y="23.0563" width="50.9251" height="48.5895" rx="1.75446" fill="#333333"></rect><rect x="41.8853" y="65.8267" width="3.65102" height="2.90955" rx="0.87723" fill="#F4F4F4"></rect><rect x="41.8853" y="60.8805" width="3.65102" height="4.65528" rx="0.87723" fill="#F4F4F4"></rect><rect x="41.8853" y="31.2031" width="3.65102" height="2.90955" rx="0.87723" fill="#F4F4F4"></rect><rect x="41.8853" y="26.2568" width="3.65102" height="4.65528" rx="0.87723" fill="#F4F4F4"></rect><ellipse cx="63.8283" cy="47.3511" rx="12.4386" ry="12.3656" fill="#F4F4F4"></ellipse><ellipse cx="63.8282" cy="47.3511" rx="8.63386" ry="8.58318" fill="#333333" stroke="#333333" stroke-width="0.5"></ellipse><ellipse cx="63.8281" cy="47.3511" rx="4.82911" ry="4.80076" fill="#F4F4F4"></ellipse><rect width="0.878019" height="2.03669" rx="0.29241" transform="matrix(1 0 0 -1 63.3892 55.0614)" fill="#F5F5F5"></rect><path d="M59.7902 54.0558L60.0607 54.1671C60.2095 54.2285 60.38 54.1579 60.4419 54.0092L61.001 52.6674C61.0631 52.5183 60.9926 52.3471 60.8435 52.285C60.8432 52.2849 60.8428 52.2847 60.8424 52.2846L60.572 52.1732C60.4231 52.1119 60.2527 52.1825 60.1907 52.3311L59.6317 53.6729C59.5696 53.822 59.64 53.9932 59.7891 54.0553C59.7895 54.0555 59.7899 54.0556 59.7902 54.0558Z" fill="#F5F5F5"></path><path d="M56.8477 51.126L57.0348 51.3478C57.1386 51.4707 57.3221 51.4867 57.4456 51.3837L58.5659 50.4492C58.6899 50.3457 58.7066 50.1613 58.6032 50.0373C58.6028 50.0369 58.6024 50.0364 58.6021 50.036L58.4149 49.8143C58.3112 49.6914 58.1276 49.6753 58.0041 49.7783L56.8838 50.7129C56.7598 50.8163 56.7431 51.0007 56.8466 51.1247C56.847 51.1252 56.8473 51.1256 56.8477 51.126Z" fill="#F5F5F5"></path><path d="M70.6015 51.126L70.4144 51.3478C70.3106 51.4707 70.1271 51.4867 70.0036 51.3837L68.8833 50.4492C68.7593 50.3457 68.7426 50.1613 68.8461 50.0373C68.8464 50.0369 68.8468 50.0364 68.8472 50.036L69.0343 49.8143C69.1381 49.6914 69.3216 49.6753 69.4451 49.7783L70.5654 50.7129C70.6894 50.8163 70.7061 51.0007 70.6026 51.1247C70.6023 51.1252 70.6019 51.1256 70.6015 51.126Z" fill="#F5F5F5"></path><path d="M67.8665 54.0558L67.5961 54.1671C67.4472 54.2285 67.2768 54.1579 67.2148 54.0092L66.6557 52.6674C66.5936 52.5183 66.6641 52.3471 66.8132 52.285C66.8136 52.2849 66.8139 52.2847 66.8143 52.2846L67.0847 52.1732C67.2336 52.1119 67.4041 52.1825 67.466 52.3311L68.0251 53.6729C68.0872 53.822 68.0167 53.9932 67.8676 54.0553C67.8672 54.0555 67.8669 54.0556 67.8665 54.0558Z" fill="#F5F5F5"></path><rect x="63.3892" y="39.6407" width="0.878019" height="2.03669" rx="0.29241" fill="#F5F5F5"></rect><path d="M59.7902 40.6464L60.0607 40.535C60.2095 40.4737 60.38 40.5443 60.4419 40.6929L61.001 42.0347C61.0631 42.1838 60.9926 42.355 60.8435 42.4171C60.8432 42.4173 60.8428 42.4174 60.8424 42.4176L60.572 42.5289C60.4231 42.5902 60.2527 42.5196 60.1907 42.371L59.6317 41.0292C59.5696 40.8801 59.64 40.7089 59.7891 40.6468C59.7895 40.6467 59.7899 40.6465 59.7902 40.6464Z" fill="#F5F5F5"></path><path d="M56.8477 43.5761L57.0348 43.3544C57.1386 43.2315 57.3221 43.2154 57.4456 43.3185L58.5659 44.253C58.6899 44.3564 58.7066 44.5408 58.6032 44.6648C58.6028 44.6653 58.6024 44.6657 58.6021 44.6661L58.4149 44.8879C58.3112 45.0108 58.1276 45.0268 58.0041 44.9238L56.8838 43.9893C56.7598 43.8858 56.7431 43.7014 56.8466 43.5774C56.847 43.577 56.8473 43.5766 56.8477 43.5761Z" fill="#F5F5F5"></path><path d="M56.0723 47.4951V47.207C56.0723 47.0455 56.2032 46.9146 56.3647 46.9146H57.8286C57.9901 46.9146 58.121 47.0455 58.121 47.207V47.4951C58.121 47.6566 57.9901 47.7875 57.8286 47.7875H56.3647C56.2032 47.7875 56.0723 47.6566 56.0723 47.4951Z" fill="#F5F5F5"></path><path d="M69.5356 47.4951V47.207C69.5356 47.0455 69.6666 46.9146 69.8281 46.9146H71.2919C71.4534 46.9146 71.5844 47.0455 71.5844 47.207V47.4951C71.5844 47.6566 71.4534 47.7875 71.2919 47.7875H69.8281C69.6666 47.7875 69.5356 47.6566 69.5356 47.4951Z" fill="#F5F5F5"></path><path d="M70.6015 43.5761L70.4144 43.3544C70.3106 43.2315 70.1271 43.2154 70.0036 43.3185L68.8833 44.253C68.7593 44.3564 68.7426 44.5408 68.8461 44.6648C68.8464 44.6653 68.8468 44.6657 68.8472 44.6661L69.0343 44.8879C69.1381 45.0108 69.3216 45.0268 69.4451 44.9238L70.5654 43.9893C70.6894 43.8858 70.7061 43.7014 70.6026 43.5774C70.6023 43.577 70.6019 43.5766 70.6015 43.5761Z" fill="#F5F5F5"></path><path d="M67.8665 40.6464L67.5961 40.535C67.4472 40.4737 67.2768 40.5443 67.2148 40.6929L66.6557 42.0347C66.5936 42.1838 66.6641 42.355 66.8132 42.4171C66.8136 42.4173 66.8139 42.4174 66.8143 42.4176L67.0847 42.5289C67.2336 42.5902 67.4041 42.5196 67.466 42.371L68.0251 41.0292C68.0872 40.8801 68.0167 40.7089 67.8676 40.6468C67.8672 40.6467 67.8669 40.6465 67.8665 40.6464Z" fill="#F5F5F5"></path></svg>